<?xml version="1.0" standalone="no"?>
<!DOCTYPE svg PUBLIC "-//W3C//DTD SVG 20010904//EN"
 "http://www.w3.org/TR/2001/REC-SVG-20010904/DTD/svg10.dtd">
<svg version="1.0" xmlns="http://www.w3.org/2000/svg"
 width="2000.000000pt" height="2000.000000pt" viewBox="0 0 2000.000000 2000.000000"
 preserveAspectRatio="xMidYMid meet">
<metadata>
Created by potrace 1.15, written by Peter Selinger 2001-2017
</metadata>
<g transform="translate(0.000000,2000.000000) scale(0.100000,-0.100000)"
fill="#000000" stroke="none">
<path d="M3284 18849 c-32 -18 -81 -49 -109 -71 -41 -33 -55 -38 -81 -34 -23
5 -40 0 -67 -19 -29 -19 -42 -22 -60 -16 -13 5 -41 6 -63 1 -44 -8 -234 -96
-234 -108 0 -4 -16 -16 -36 -27 -46 -25 -58 -55 -39 -100 13 -32 12 -36 -5
-45 -10 -5 -56 -10 -102 -11 -134 -2 -476 8 -486 15 -10 6 -133 -17 -151 -29
-6 -3 -76 -3 -156 1 -138 7 -147 8 -173 33 -26 25 -32 26 -145 26 -75 0 -120
-4 -125 -11 -4 -6 -18 -13 -32 -16 -14 -3 -63 -17 -110 -31 -47 -15 -104 -31
-127 -37 -58 -14 -68 -37 -47 -98 9 -26 18 -60 20 -77 6 -44 15 -67 32 -84 11
-11 13 -29 9 -70 -29 -292 -29 -297 -13 -336 9 -20 16 -46 16 -56 0 -30 21
-66 45 -77 13 -6 54 -14 92 -17 83 -9 98 2 109 71 5 35 12 47 30 54 13 5 31 7
39 4 17 -7 20 -30 5 -39 -5 -3 -10 -34 -10 -68 1 -55 4 -65 29 -90 30 -29 81
-38 129 -22 34 10 27 -15 -18 -62 -51 -54 -69 -63 -122 -63 -24 0 -85 -9 -137
-20 -52 -11 -107 -20 -122 -20 -15 0 -31 -4 -34 -10 -3 -5 -13 -10 -20 -10 -8
0 -38 -11 -67 -24 -29 -13 -64 -27 -76 -31 -35 -10 -64 -43 -73 -84 -4 -19 -3
-198 2 -396 6 -198 14 -628 19 -955 5 -327 12 -610 16 -629 4 -21 25 -53 54
-83 l47 -49 8 -287 c4 -158 8 -312 9 -343 2 -65 14 -83 62 -99 38 -13 40 -19
20 -58 -8 -17 -16 -82 -20 -175 -5 -113 -10 -156 -24 -180 -14 -26 -17 -55
-16 -152 1 -185 18 -217 129 -256 53 -18 85 -38 85 -54 0 -11 71 -47 180 -92
19 -8 42 -18 50 -22 8 -4 31 -1 52 7 34 14 44 13 96 -1 120 -33 141 -37 186
-37 43 0 51 -4 121 -69 65 -61 82 -71 132 -81 31 -7 62 -17 68 -24 7 -6 65
-29 131 -50 65 -21 138 -47 162 -58 24 -10 63 -21 87 -25 25 -3 45 -9 45 -13
0 -4 33 -17 73 -30 39 -12 126 -40 192 -61 66 -22 152 -46 190 -54 39 -8 90
-21 114 -30 24 -8 54 -15 67 -15 12 0 25 -4 29 -9 12 -20 -26 -38 -95 -45 -49
-4 -89 -15 -130 -36 -33 -17 -67 -30 -77 -30 -20 -1 -53 -23 -53 -36 0 -15
-54 -64 -70 -64 -10 0 -31 -5 -48 -11 -29 -10 -31 -14 -42 -94 -10 -73 -10
-86 5 -108 21 -33 46 -49 118 -75 71 -27 114 -28 170 -3 23 10 74 29 112 41
39 13 72 27 75 30 3 4 16 9 30 12 14 3 31 7 38 9 9 3 15 -7 17 -28 1 -18 6
-57 9 -87 7 -49 4 -63 -29 -138 -26 -58 -35 -91 -31 -111 3 -16 0 -41 -9 -57
-8 -16 -15 -43 -15 -60 0 -33 31 -101 60 -132 25 -28 30 -67 14 -113 -17 -51
-17 -75 1 -99 22 -29 19 -108 -5 -149 -20 -33 -37 -109 -44 -190 -2 -21 -6
-40 -9 -44 -4 -3 -30 -8 -59 -10 -103 -8 -128 -23 -128 -74 0 -16 -3 -29 -8
-29 -9 0 -27 -41 -43 -100 -7 -25 -16 -49 -20 -55 -39 -55 -64 -232 -60 -430
2 -130 4 -141 24 -158 21 -17 54 -17 572 -12 303 3 568 7 589 8 35 2 41 -1 59
-33 25 -45 33 -50 90 -50 l47 0 0 -70 c0 -65 2 -71 25 -82 18 -8 42 -8 94 0
86 15 91 15 91 1 0 -6 7 -17 15 -25 10 -10 15 -35 15 -68 0 -57 7 -67 54 -83
l29 -9 -22 -21 c-16 -15 -25 -42 -36 -109 -8 -49 -19 -110 -24 -137 -18 -85
20 -123 98 -97 57 18 82 11 96 -29 6 -19 17 -37 23 -39 7 -2 12 -15 12 -28 0
-13 14 -59 32 -100 l32 -76 -48 -42 c-40 -34 -50 -50 -56 -86 -4 -25 -15 -81
-24 -125 -25 -122 -23 -136 29 -192 30 -35 48 -65 55 -97 6 -26 18 -59 27 -73
l17 -25 131 6 132 6 22 -87 c12 -49 26 -104 31 -123 5 -19 12 -83 14 -143 5
-119 1 -127 -65 -127 -33 0 -79 -38 -79 -65 0 -7 -9 -33 -19 -58 -19 -44 -19
-45 0 -76 10 -17 38 -44 62 -59 42 -27 50 -51 26 -76 -12 -13 -11 -123 1 -131
6 -3 10 -22 10 -42 0 -20 5 -51 12 -70 13 -36 16 -32 -100 -131 -56 -48 -78
-92 -61 -123 6 -13 20 -32 31 -43 29 -31 45 -66 51 -115 9 -74 16 -76 192 -74
130 2 154 0 159 -13 3 -9 3 -20 0 -25 -3 -6 -3 -33 1 -60 11 -76 37 -89 187
-89 64 0 119 -4 122 -9 3 -4 -1 -26 -9 -47 -57 -160 -111 -411 -99 -460 7 -25
40 -42 100 -51 24 -3 45 -8 45 -12 1 -3 3 -21 5 -39 4 -55 24 -62 142 -55
l102 6 0 -47 c0 -68 19 -134 45 -154 22 -17 43 -72 27 -72 -12 0 -32 -46 -32
-76 0 -27 15 -57 44 -92 15 -17 30 -22 68 -22 l48 0 0 -36 c0 -38 26 -77 108
-163 45 -47 47 -66 8 -80 -28 -11 -38 -57 -21 -98 15 -35 32 -49 71 -57 27 -6
32 -12 38 -46 8 -51 45 -78 82 -61 32 14 41 14 26 -1 -7 -7 -12 -20 -12 -30 0
-10 -4 -18 -10 -18 -19 0 -22 -49 -6 -81 16 -32 16 -33 -14 -60 -43 -40 -41
-84 5 -129 31 -30 33 -35 18 -45 -25 -18 -20 -71 8 -101 29 -31 71 -54 98 -54
15 0 22 -11 31 -50 7 -27 16 -50 21 -50 5 0 9 -7 9 -15 0 -8 30 -28 68 -46 61
-30 76 -33 177 -35 l110 -2 29 -49 c15 -26 33 -51 38 -54 11 -7 52 -5 263 11
82 7 157 16 167 21 9 5 57 23 105 40 48 17 104 39 123 50 49 26 183 39 415 40
110 0 252 4 316 7 64 4 124 6 133 4 23 -5 20 -25 -14 -79 -22 -35 -30 -59 -30
-93 0 -26 -9 -65 -20 -88 -11 -22 -20 -48 -20 -57 0 -9 -8 -28 -17 -42 -10
-15 -22 -51 -28 -82 -9 -48 -13 -56 -38 -62 -37 -10 -57 -27 -57 -50 0 -11 -4
-19 -8 -19 -5 0 -19 -18 -31 -40 -19 -34 -22 -49 -16 -90 6 -40 3 -57 -12 -83
-11 -18 -23 -63 -27 -100 -6 -62 -10 -70 -46 -103 -29 -27 -40 -44 -40 -65 0
-29 -1 -29 -50 -28 -80 3 -86 -7 -121 -217 l-22 -132 37 -73 c40 -79 41 -107
11 -166 -8 -15 -15 -37 -15 -47 0 -21 -58 -97 -104 -137 -27 -23 -32 -25 -55
-12 -39 20 -44 18 -114 -42 -35 -30 -67 -55 -71 -55 -7 0 -23 -12 -57 -42 -10
-10 -19 -29 -19 -43 0 -26 37 -134 51 -150 13 -14 11 -73 -3 -77 -6 -2 -12
-25 -12 -54 -1 -37 5 -57 24 -82 16 -22 21 -35 14 -40 -26 -17 -34 -56 -34
-167 0 -102 3 -123 23 -164 21 -41 23 -54 16 -121 -13 -124 -12 -125 34 -179
23 -27 49 -52 57 -56 26 -13 203 -17 240 -6 162 46 407 94 473 92 32 -1 98
-15 149 -31 138 -45 169 -40 207 30 10 19 35 44 56 56 36 20 94 87 95 109 0
17 63 99 108 142 23 22 42 46 42 54 0 8 11 26 24 40 l23 27 134 -5 c100 -3
138 -1 150 9 9 7 26 45 38 83 12 39 26 79 31 90 4 11 22 61 40 110 51 145 45
136 80 124 16 -6 30 -14 30 -17 0 -11 -60 -162 -91 -229 -22 -48 -26 -69 -20
-86 14 -35 59 -50 133 -43 35 3 143 9 240 12 l177 6 31 30 c28 27 34 28 62 19
40 -14 130 -14 161 0 38 17 50 47 38 99 -13 57 -2 70 58 70 25 0 69 6 96 13
44 12 50 17 53 41 3 25 -17 87 -50 153 -20 40 -2 112 37 151 35 35 35 36 35
122 0 107 -1 108 -120 134 -21 5 -70 -22 -101 -55 -32 -34 -49 -37 -49 -9 0
21 4 25 86 100 81 74 81 74 100 56 74 -74 129 -85 167 -33 62 83 65 119 13
197 -18 27 -21 41 -14 54 5 10 8 37 6 62 -3 42 -2 44 24 44 20 0 31 -8 42 -28
8 -16 21 -33 28 -40 8 -6 70 -13 138 -17 68 -3 129 -10 134 -15 6 -6 18 -10
27 -10 10 0 24 -6 31 -13 7 -6 30 -23 50 -37 28 -19 38 -32 38 -52 0 -19 14
-43 44 -75 25 -27 56 -61 69 -77 22 -27 32 -30 93 -34 38 -2 75 -9 82 -15 24
-19 45 -76 37 -105 -4 -15 -9 -46 -12 -68 -4 -38 -2 -44 30 -68 18 -14 41 -26
51 -26 20 0 56 -56 56 -89 0 -14 -13 -61 -29 -105 -30 -87 -52 -176 -53 -216
0 -42 29 -56 116 -53 86 2 113 8 138 31 10 8 19 12 19 9 1 -4 3 -11 4 -17 1
-5 3 -33 4 -60 1 -44 4 -52 26 -62 22 -10 33 -8 70 10 42 20 45 21 54 4 5 -10
7 -37 4 -60 -6 -45 7 -72 36 -72 15 0 59 19 136 58 17 8 50 25 75 38 56 27 80
49 109 97 19 31 28 37 55 37 20 0 40 8 51 20 27 29 53 24 120 -26 33 -24 70
-49 83 -54 30 -13 28 -23 -8 -39 -54 -23 -89 -60 -96 -99 -3 -20 -16 -48 -29
-62 -31 -35 -35 -51 -20 -86 16 -39 89 -112 117 -118 13 -3 34 -7 48 -10 14
-2 43 -10 65 -16 115 -33 138 -34 187 -7 52 29 68 22 68 -26 0 -49 22 -108 46
-124 20 -12 29 -13 61 -2 21 7 43 17 50 22 6 4 39 7 73 5 55 -2 63 -6 71 -26
13 -35 11 -102 -4 -117 -7 -7 -21 -48 -31 -91 -16 -73 -16 -85 -2 -158 9 -47
26 -95 41 -118 29 -43 30 -43 208 -29 108 9 118 14 138 86 15 52 41 125 45
125 1 0 35 -15 76 -33 40 -19 98 -43 128 -55 185 -69 202 -74 236 -69 36 6
112 62 113 84 1 19 49 27 77 14 14 -6 35 -11 47 -11 13 0 28 -5 33 -10 20 -20
174 -51 195 -40 19 10 179 327 179 354 0 8 4 16 8 18 4 2 28 45 52 96 24 50
45 92 46 92 8 0 81 -47 98 -62 11 -10 23 -18 28 -18 4 0 31 -15 60 -33 82 -52
144 -77 188 -77 35 0 43 4 60 32 11 18 20 43 20 55 0 18 9 25 43 34 46 12 77
34 77 56 0 19 -96 219 -109 228 -21 12 -11 56 17 80 21 19 34 23 58 19 79 -14
94 41 44 153 -30 66 -39 118 -20 125 20 6 50 112 50 176 0 66 -10 96 -42 123
-13 12 -18 30 -18 65 0 43 3 51 29 65 22 13 30 27 37 65 8 42 13 49 34 52 44
4 105 24 112 36 12 18 9 61 -6 98 -10 22 -11 39 -5 49 16 25 10 79 -13 109
-20 27 -20 31 -6 47 10 12 21 64 32 147 16 130 38 190 80 226 22 17 20 119 -3
239 -21 106 -42 136 -88 125 -40 -10 -46 14 -15 58 19 27 34 38 53 38 32 0 57
26 70 73 5 20 16 43 24 51 35 34 39 87 9 111 -21 17 -54 84 -54 111 0 51 24
120 51 147 22 22 28 39 32 85 2 31 11 84 20 117 19 71 21 128 6 157 -18 33
-71 88 -85 88 -15 0 -11 153 7 275 8 56 7 89 -6 165 -9 52 -21 124 -26 160
-14 94 -25 115 -70 136 -23 10 -47 30 -55 46 -9 18 -26 31 -43 34 -16 3 -41
17 -56 30 -16 14 -40 27 -54 30 -14 3 -49 12 -77 20 -63 19 -99 11 -121 -27
-21 -36 -35 -41 -73 -28 -28 10 -30 14 -30 64 0 34 5 57 15 65 8 7 15 27 15
44 0 25 -9 37 -41 61 -39 29 -40 31 -32 70 14 75 8 109 -35 197 -23 47 -42 93
-42 103 0 18 -14 68 -31 110 -4 11 -13 45 -20 75 -7 30 -16 60 -20 65 -4 6
-10 33 -14 62 -5 39 -3 53 7 60 28 16 39 68 37 174 -1 59 3 116 10 132 6 16
11 71 11 122 l0 95 35 31 c34 31 42 58 29 93 -3 9 -14 16 -24 16 -10 0 -20 5
-22 10 -2 7 -25 7 -73 1 -52 -8 -77 -7 -97 2 -16 6 -28 15 -28 18 0 3 -29 19
-65 34 -36 16 -65 35 -65 42 0 15 19 51 38 71 8 9 13 40 13 86 -1 39 2 118 5
176 5 102 0 133 -28 171 -9 13 -3 24 36 63 26 25 51 46 56 46 5 0 47 17 92 39
46 21 91 41 101 44 9 4 17 13 17 22 0 8 4 15 10 15 5 0 13 17 16 39 11 66 2
63 228 62 190 -2 207 0 226 17 37 34 45 166 15 243 -7 18 80 102 99 96 7 -2
10 -28 8 -69 -4 -65 -3 -66 54 -152 57 -86 57 -86 100 -86 23 0 64 4 91 9 108
22 254 40 358 46 61 3 178 18 260 33 116 20 184 26 300 27 141 0 152 2 183 23
20 15 57 27 99 33 73 10 103 29 103 66 0 31 19 113 31 135 5 10 9 26 9 36 0
10 4 22 9 28 5 5 11 48 13 96 4 82 6 88 36 116 18 17 32 35 32 41 0 27 -25 59
-73 92 l-52 35 0 100 c0 95 -20 204 -37 204 -4 0 -8 6 -8 14 0 9 26 22 68 35
37 12 72 29 78 39 6 9 26 80 43 157 18 77 42 168 53 203 18 54 20 71 11 135
-10 69 -9 76 26 182 20 61 38 112 41 115 4 3 12 21 20 40 7 19 22 44 32 56 10
11 18 26 18 32 0 6 24 36 53 67 l54 55 93 0 c99 0 157 14 178 42 7 10 19 18
25 18 7 1 28 14 47 30 19 17 38 30 43 30 17 0 48 38 58 71 22 72 39 141 39
156 0 27 43 104 65 116 11 6 60 12 109 13 62 1 91 6 97 15 12 18 75 124 97
164 9 16 31 52 48 80 39 65 54 108 54 160 0 27 9 59 26 89 28 49 28 64 3 159
-10 39 -10 55 1 85 7 20 18 40 24 44 15 11 95 10 132 -1 45 -13 80 -3 93 25 6
14 11 76 11 139 0 107 2 120 32 187 17 40 37 80 45 89 7 8 13 21 13 27 0 7 19
30 42 53 37 36 44 49 55 112 29 156 29 195 -6 272 -17 38 -37 73 -44 77 -8 5
-14 76 -19 240 -8 227 -18 346 -37 438 -6 25 -22 101 -36 169 -14 68 -31 134
-37 145 -14 27 -91 130 -100 134 -14 6 -9 81 6 89 7 4 26 23 41 41 37 44 44
119 33 325 -8 150 -8 160 12 187 11 15 20 43 20 62 0 67 20 150 50 209 24 48
29 68 24 95 -3 19 -10 37 -15 40 -10 6 -37 63 -40 84 -1 8 -1 34 0 58 1 37 4
42 24 42 46 0 56 26 47 123 -5 55 -15 100 -27 120 -11 17 -30 59 -43 92 -13
33 -27 65 -33 72 -13 18 -26 299 -27 588 0 274 -7 321 -46 331 -31 8 -31 12
-39 224 -3 96 -10 256 -15 355 -21 373 -32 710 -35 1015 -4 362 -18 518 -49
529 -10 4 -57 1 -103 -8 -72 -12 -88 -12 -106 -1 -24 15 -160 39 -219 40 -37
0 -112 -17 -176 -40 -31 -12 -38 -23 -44 -80 -4 -32 -34 -34 -66 -6 -20 18
-36 21 -95 19 -99 -2 -123 -13 -138 -61 l-11 -39 -142 -13 c-186 -16 -248 -27
-310 -55 -28 -13 -85 -29 -126 -35 -171 -26 -194 -30 -198 -35 -9 -9 -31 30
-32 56 0 42 -35 58 -137 63 -115 6 -324 -22 -596 -78 -173 -36 -237 -61 -237
-92 0 -21 -21 -28 -105 -36 -142 -12 -174 -19 -180 -38 -3 -10 -12 -21 -20
-24 -12 -4 -15 4 -15 38 0 24 -6 48 -13 54 -22 18 -201 32 -422 32 l-216 0
-47 -32 c-26 -17 -48 -35 -50 -40 -2 -4 -10 -8 -17 -8 -32 0 -33 -67 -2 -124
26 -49 45 -65 74 -66 24 0 53 -24 53 -45 0 -7 -21 -18 -50 -25 -81 -19 -96
-37 -104 -122 -13 -130 -17 -148 -37 -148 -17 0 -18 17 -18 293 0 181 -4 303
-10 320 -6 15 -22 32 -37 37 -14 6 -112 15 -217 20 -106 5 -277 14 -382 20
-104 5 -265 11 -357 13 l-167 4 -36 32 c-22 19 -46 31 -65 31 -16 0 -32 5 -35
10 -3 6 -39 10 -80 10 -63 0 -75 3 -79 18 -11 35 -49 45 -136 38 -167 -14
-167 -14 -190 -62 -14 -31 -20 -64 -20 -112 0 -38 -3 -103 -6 -145 l-7 -76
-54 -33 c-140 -85 -150 -97 -164 -194 -11 -78 -28 -148 -35 -142 -2 3 -7 27
-10 54 -3 29 -12 54 -22 62 -18 13 -64 8 -70 -9 -2 -5 -8 -9 -13 -9 -8 0 -67
-43 -159 -117 -26 -21 -180 -137 -213 -161 -18 -13 -43 -34 -57 -48 -14 -13
-34 -32 -45 -42 -44 -38 -85 -94 -85 -117 0 -17 -6 -25 -18 -25 -14 0 -21 14
-31 61 -14 62 -41 99 -72 99 -10 0 -21 5 -25 11 -10 17 -93 49 -128 49 -25 0
-41 -9 -64 -35 -18 -19 -32 -41 -32 -49 0 -8 -5 -18 -10 -21 -24 -15 -3 -94
42 -162 52 -78 31 -125 -72 -158 -40 -13 -70 -32 -107 -69 -41 -41 -66 -56
-121 -74 -37 -12 -76 -22 -85 -22 -9 0 -17 -4 -17 -9 0 -10 -11 -12 -175 -35
-60 -9 -159 -25 -220 -36 -106 -18 -180 -24 -457 -37 -117 -5 -133 -3 -184 17
-51 21 -66 22 -172 17 -64 -4 -122 -3 -128 1 -15 10 -34 69 -34 108 0 19 -4
34 -10 34 -5 0 -10 7 -10 16 0 31 -39 101 -64 112 -14 6 -65 16 -113 22 -48 6
-108 15 -133 20 -177 37 -454 59 -476 37 -4 -4 -11 -29 -15 -55 -6 -37 -36
-218 -39 -229 0 -2 -17 -3 -37 -3 -21 0 -54 -10 -73 -21 -22 -14 -56 -23 -95
-25 -33 -2 -71 -5 -85 -6 -19 -2 -26 3 -33 27 -6 17 -13 39 -17 50 -5 11 -14
43 -21 70 -9 34 -27 65 -55 95 -35 38 -42 53 -47 100 -3 30 -10 84 -16 120
-17 115 -39 262 -55 370 -9 58 -24 152 -34 209 -18 101 -19 104 -54 124 -32
19 -39 20 -76 8 -45 -15 -62 -10 -63 22 -1 34 -33 82 -57 85 -32 5 -38 20 -50
122 -14 114 -30 136 -97 126 -76 -12 -104 -28 -116 -64 -6 -18 -8 -43 -4 -55
16 -48 68 -630 58 -649 -2 -4 -25 -10 -51 -13 -26 -3 -58 -8 -71 -11 l-24 -5
6 198 c4 109 11 288 16 398 4 110 5 225 2 255 -6 52 -8 56 -73 110 -83 70
-133 84 -232 68 -36 -6 -66 -15 -66 -19 0 -5 -7 -9 -16 -9 -28 0 -47 -31 -65
-108 -41 -180 -52 -283 -56 -567 l-5 -280 -81 -5 c-164 -9 -321 -5 -357 9 -19
8 -44 17 -55 22 -11 4 -40 15 -65 24 -25 10 -78 28 -119 41 -68 23 -75 23 -97
9 -13 -8 -24 -22 -24 -29 0 -8 -9 -16 -19 -19 -21 -5 -31 16 -31 65 0 31 -33
60 -120 104 -30 15 -66 35 -80 45 -142 95 -240 153 -269 161 -31 9 -37 7 -53
-12 -15 -19 -18 -41 -17 -139 1 -138 13 -281 27 -336 6 -22 38 -95 72 -162 33
-68 60 -135 60 -150 0 -15 -10 -40 -23 -55 -20 -25 -31 -28 -108 -34 -79 -6
-87 -5 -93 12 -5 19 -36 190 -36 203 0 4 14 15 32 26 38 22 78 63 78 80 0 18
-57 103 -80 117 -11 7 -20 17 -20 21 0 5 -6 14 -12 21 -7 7 -58 60 -113 117
l-100 104 -120 1 c-153 2 -488 22 -580 35 -38 5 -99 12 -135 16 -36 3 -72 9
-81 14 -9 4 -63 17 -120 29 -57 12 -164 41 -238 66 -73 24 -140 44 -147 44 -8
0 -14 4 -14 8 0 4 -21 18 -47 31 -45 21 -192 116 -203 131 -3 3 -15 13 -28 22
-26 18 -229 206 -310 288 -36 37 -67 81 -92 135 -43 91 -59 108 -119 130 -60
21 -70 19 -137 -16z m111 -86 c27 -13 36 -24 41 -52 12 -67 57 -130 178 -253
122 -124 243 -235 274 -252 9 -5 20 -14 24 -20 3 -6 38 -32 77 -56 l70 -45 1
-55 c0 -31 -4 -60 -9 -65 -5 -6 -14 -53 -20 -105 -24 -199 -32 -229 -78 -281
-24 -26 -43 -51 -43 -57 0 -5 -31 -41 -70 -79 -38 -39 -70 -74 -70 -78 0 -4
-28 -35 -62 -69 -35 -33 -93 -95 -130 -136 l-68 -75 -32 35 c-18 20 -62 69
-98 110 -36 41 -69 77 -73 78 -4 2 -22 25 -40 52 -18 26 -54 72 -80 101 -26
30 -62 75 -80 100 -17 26 -52 75 -76 110 -25 35 -48 66 -53 67 -4 2 -8 8 -8
13 0 6 -9 20 -21 32 -11 12 -41 57 -66 100 -26 43 -51 81 -57 85 -6 4 -20 25
-32 47 -25 47 -115 198 -123 205 -35 31 -72 120 -50 120 22 0 79 51 79 70 0
10 4 21 9 25 6 3 6 17 -1 35 -10 31 1 60 24 60 6 0 30 14 55 30 24 17 50 30
57 30 6 0 17 5 23 11 10 10 36 12 127 9 17 0 44 6 62 15 18 8 39 12 47 9 18
-7 61 14 102 50 17 14 34 26 39 26 5 0 16 8 25 18 16 17 70 51 83 52 4 0 23
-8 43 -17z m4334 -250 l60 -48 1 -92 c0 -50 -4 -93 -9 -95 -11 -4 -36 -393
-36 -571 l0 -139 28 -24 c16 -13 32 -22 37 -19 13 8 20 -35 20 -127 0 -48 5
-100 11 -115 19 -46 26 -66 39 -103 7 -19 21 -54 31 -77 11 -24 19 -47 19 -51
0 -9 89 -209 114 -257 9 -16 16 -36 16 -43 0 -7 4 -20 10 -30 37 -64 49 -123
50 -244 1 -67 1 -129 1 -135 -1 -9 -18 -13 -50 -13 -27 0 -119 -9 -203 -19
-84 -11 -183 -22 -221 -26 -82 -8 -97 -21 -98 -86 -1 -27 -3 -53 -4 -59 -1 -5
-3 -15 -4 -21 -1 -8 -38 -10 -128 -5 -71 3 -213 9 -318 12 -173 6 -192 9 -207
27 -10 11 -18 23 -18 26 0 3 -10 17 -23 31 -13 14 -42 52 -64 85 -23 33 -55
74 -72 92 -17 18 -31 36 -31 41 0 4 -8 17 -17 28 -49 54 -103 123 -103 132 0
5 -25 42 -55 80 -30 39 -55 73 -55 76 0 3 -12 17 -26 31 -19 20 -23 30 -17 48
4 12 8 78 7 146 -1 121 -1 125 -27 147 -14 12 -62 35 -106 51 -45 15 -81 33
-81 38 0 6 6 21 13 35 28 53 28 89 2 144 -14 29 -25 56 -25 60 0 5 -8 20 -19
34 -10 15 -24 45 -31 66 -7 22 -21 53 -30 70 -23 40 -47 319 -30 346 6 9 10
10 10 3 0 -13 114 -93 205 -142 33 -18 64 -37 70 -42 5 -5 17 -9 27 -9 26 0
41 -46 33 -100 -10 -59 -7 -121 7 -137 29 -35 80 -3 169 107 l36 45 44 -22
c213 -105 265 -117 454 -108 191 9 296 22 313 38 10 11 14 75 16 283 2 148 8
307 15 354 6 47 14 113 17 148 4 34 11 65 15 68 5 3 9 15 9 28 0 13 5 37 11
55 11 30 12 31 74 31 60 0 66 -2 124 -47z m10602 15 c56 -13 125 -22 170 -21
l77 0 6 -60 c4 -32 7 -161 6 -286 0 -124 4 -343 10 -486 25 -629 31 -770 41
-940 13 -227 22 -275 59 -312 l28 -28 6 -220 c3 -121 9 -310 14 -420 8 -220 1
-194 94 -380 35 -72 36 -118 0 -123 -32 -5 -43 -34 -49 -128 -5 -80 7 -144 27
-144 16 0 32 -57 21 -76 -29 -50 -51 -120 -51 -162 0 -26 -4 -52 -8 -58 -5 -7
-88 -11 -255 -12 -293 -2 -304 -5 -331 -78 -45 -123 -58 -144 -87 -144 -15 0
-30 4 -33 9 -3 5 -18 11 -33 13 -16 3 -72 17 -125 31 -53 15 -125 27 -160 28
-60 1 -65 0 -98 -34 -33 -33 -44 -47 -72 -99 -7 -13 -16 -25 -19 -28 -10 -9
-69 -98 -69 -105 0 -3 -16 -24 -37 -45 l-36 -40 -88 0 c-104 0 -96 -14 -103
161 -3 69 -11 131 -19 151 -14 34 -18 36 -88 46 -41 6 -93 8 -115 5 -53 -7
-48 -26 -84 312 -20 198 -33 291 -40 300 -4 6 -11 46 -14 91 -4 44 -16 123
-27 175 -11 52 -23 108 -26 126 -3 17 -18 44 -34 60 -16 15 -29 33 -29 39 0 6
-9 19 -20 29 -28 26 -72 103 -65 115 3 6 39 10 79 10 78 0 232 33 254 54 8 8
16 41 19 74 5 51 9 62 30 71 13 6 33 11 43 11 46 0 69 21 80 75 10 48 14 53
53 69 23 9 50 21 59 27 10 5 26 9 37 9 35 0 45 28 49 129 2 66 -1 104 -10 121
-13 24 -19 25 -103 27 -50 1 -96 2 -102 2 -10 1 -13 40 -13 161 0 121 3 160
13 161 6 1 19 3 27 3 58 6 113 21 126 33 11 11 13 34 9 103 -4 76 -10 98 -40
157 -40 77 -42 91 -17 101 9 4 42 24 74 44 57 38 128 68 161 68 11 0 39 18 64
40 24 21 59 43 76 48 18 6 66 20 107 32 143 41 221 79 253 122 19 25 19 28 2
129 -9 57 -18 111 -21 119 -6 20 -49 39 -66 29 -7 -5 -27 -9 -43 -9 -28 0 -33
6 -63 70 -31 68 -35 111 -11 126 5 3 9 13 9 23 0 10 9 26 20 36 11 10 20 23
20 29 0 11 40 96 50 106 11 11 70 131 70 142 0 16 87 98 104 98 8 0 16 17 20
41 5 33 12 43 39 54 45 20 89 18 198 -7z m-461 -103 c0 -8 3 -15 8 -15 4 0 13
-4 21 -9 10 -7 2 -28 -39 -102 -93 -170 -163 -318 -163 -346 0 -15 17 -63 37
-105 20 -42 36 -82 36 -87 0 -18 43 -51 68 -51 13 0 32 5 43 10 16 9 21 7 30
-17 6 -15 13 -48 16 -73 l5 -45 -85 -43 c-46 -23 -94 -42 -105 -42 -11 0 -24
-4 -27 -10 -3 -5 -23 -10 -44 -10 -52 0 -103 -23 -147 -65 -20 -19 -45 -35
-55 -35 -11 0 -37 -9 -59 -20 -22 -11 -44 -20 -49 -20 -13 0 -139 -78 -168
-103 -30 -26 -38 -69 -20 -109 8 -18 25 -57 38 -87 16 -35 24 -73 24 -110 l0
-56 -74 -7 c-41 -4 -78 -11 -82 -15 -3 -5 -9 -108 -13 -230 -8 -263 -10 -257
87 -246 34 4 78 8 97 8 l35 0 3 -56 c3 -66 2 -67 -96 -100 l-72 -24 -17 -57
c-16 -55 -18 -57 -62 -68 -26 -7 -51 -13 -57 -15 -6 -2 -16 -29 -23 -61 -24
-105 -15 -99 -169 -113 -75 -7 -147 -14 -158 -17 -22 -4 -60 35 -94 97 -81
149 -135 239 -142 239 -4 0 -8 9 -8 20 0 11 -4 20 -10 20 -5 0 -10 5 -10 11 0
7 -18 43 -40 81 -22 39 -40 75 -40 82 0 7 -9 22 -20 34 -11 12 -20 25 -20 31
0 5 -14 35 -31 67 -53 98 -89 174 -89 186 0 6 -6 19 -14 27 -8 9 -30 54 -49
101 -32 79 -53 126 -113 256 -13 28 -24 54 -24 58 0 4 -9 28 -21 54 -39 86
-46 106 -87 237 -65 208 -75 259 -83 425 -3 85 -10 167 -14 182 -9 32 -2 34
123 41 92 6 128 22 145 67 8 20 19 30 41 33 125 20 165 28 196 38 19 6 64 15
100 19 64 8 172 24 259 38 58 9 203 3 196 -9 -4 -5 -2 -9 4 -9 5 0 8 -12 6
-27 -2 -16 4 -39 12 -52 19 -29 24 -29 342 18 40 6 85 18 100 25 60 32 116 46
233 56 268 23 308 34 308 84 0 30 7 36 47 36 23 0 33 -5 33 -15z m-4674 -32
c27 -36 57 -44 170 -46 103 -2 121 -8 137 -49 6 -16 21 -18 127 -18 73 0 120
-4 120 -10 0 -6 41 -10 104 -10 58 0 160 -4 228 -10 68 -5 204 -12 303 -15
218 -7 253 -10 261 -18 4 -3 1 -135 -6 -292 -9 -212 -10 -289 -1 -298 6 -6 11
-19 11 -29 0 -24 38 -32 117 -24 78 8 113 28 113 65 0 61 25 187 39 198 9 6
32 14 52 17 58 9 72 34 71 122 -2 65 -5 78 -24 95 -13 10 -35 18 -49 19 -15 0
-37 9 -50 19 l-24 19 30 26 c17 14 35 26 42 26 6 0 13 4 15 10 2 6 23 6 63 0
33 -5 101 -10 150 -10 50 0 130 -5 180 -11 65 -8 90 -8 93 0 2 6 8 11 13 11 5
0 9 -47 9 -105 0 -63 -4 -105 -10 -105 -14 0 -12 -122 3 -140 23 -28 57 -40
111 -40 58 0 66 -7 66 -60 0 -16 5 -32 10 -35 6 -3 10 -26 10 -50 0 -24 5 -47
10 -50 6 -3 10 -17 10 -31 0 -32 38 -149 62 -192 10 -18 18 -46 18 -62 l0 -30
-469 0 c-303 0 -472 4 -476 10 -4 6 -166 10 -454 10 -325 0 -450 3 -459 12
-12 12 -6 96 9 113 19 20 9 63 -18 81 -25 16 -57 18 -318 20 -159 2 -343 5
-409 9 -85 4 -126 2 -147 -7 -16 -7 -29 -16 -29 -20 0 -5 -9 -8 -20 -8 -11 0
-20 -7 -20 -15 0 -8 -17 -22 -37 -32 -21 -9 -44 -23 -51 -30 -7 -7 -26 -20
-42 -29 -16 -10 -31 -26 -33 -36 -3 -11 -14 -18 -31 -18 -14 0 -26 -3 -26 -8
0 -4 -18 -18 -41 -32 -22 -14 -45 -33 -50 -42 -5 -10 -18 -18 -28 -18 -11 0
-29 -11 -42 -25 -13 -13 -30 -25 -36 -25 -7 0 -13 -4 -13 -10 0 -5 -7 -10 -15
-10 -7 0 -18 -6 -22 -13 -9 -13 -88 -67 -99 -67 -4 0 -22 -12 -41 -26 -19 -14
-36 -24 -37 -23 -23 30 -68 103 -76 123 -5 14 -14 26 -18 26 -5 0 -21 17 -34
38 -14 20 -44 56 -67 80 -22 23 -41 45 -41 49 0 10 52 63 63 63 5 0 26 18 48
40 22 22 45 40 52 40 7 0 34 21 60 45 27 25 52 45 57 45 5 0 15 6 22 13 14 12
30 23 80 55 16 9 28 23 28 30 0 21 51 14 57 -8 5 -18 14 -20 97 -20 89 0 91 1
104 27 6 15 12 46 12 69 0 24 5 46 10 49 6 3 10 24 10 46 0 21 5 39 10 39 6 0
10 18 10 40 0 38 2 40 30 40 17 0 30 5 30 10 0 6 9 10 19 10 11 0 21 3 23 8 4
9 57 41 80 49 22 7 38 76 38 162 0 46 4 71 13 74 9 3 9 7 0 19 -13 16 -7 84 9
105 6 8 33 12 67 12 50 -1 61 -5 77 -26z m-11716 -45 l52 -32 171 2 c95 2 186
7 202 12 27 8 316 6 545 -3 78 -4 85 -6 88 -25 2 -12 8 -22 13 -22 5 0 9 -8 9
-17 0 -10 9 -29 20 -43 11 -14 20 -29 20 -35 0 -5 14 -28 30 -49 17 -22 30
-43 30 -47 0 -8 61 -110 70 -119 3 -3 18 -26 33 -52 15 -27 32 -48 37 -48 6 0
10 -4 10 -10 0 -15 129 -210 140 -210 5 0 12 -10 16 -22 6 -21 41 -76 55 -88
3 -3 23 -30 44 -60 21 -30 42 -59 46 -65 64 -79 115 -141 119 -145 3 -3 30
-34 60 -69 30 -35 79 -89 108 -119 28 -30 52 -56 52 -58 0 -2 -21 -26 -47 -52
-58 -59 -195 -209 -253 -277 -23 -27 -49 -54 -56 -58 -8 -4 -27 -27 -43 -50
-15 -23 -50 -65 -77 -94 -110 -116 -139 -159 -146 -215 -3 -29 -10 -223 -14
-430 -5 -285 -4 -378 4 -378 7 0 12 -11 12 -25 0 -18 7 -28 26 -35 27 -11 28
-6 -3 -103 -14 -43 -14 -64 -3 -170 7 -67 15 -172 17 -233 l5 -112 -31 -18
c-17 -10 -31 -24 -31 -30 0 -7 -12 -17 -27 -23 -16 -6 -39 -19 -53 -30 -36
-29 -208 -61 -328 -61 -147 0 -298 -18 -345 -41 -23 -10 -48 -19 -56 -19 -9 0
-27 -9 -41 -20 -14 -11 -30 -20 -36 -20 -6 0 -39 -12 -75 -27 -42 -17 -95 -29
-154 -35 -49 -4 -117 -12 -150 -17 -33 -5 -100 -14 -150 -20 -49 -6 -126 -17
-170 -25 -84 -14 -155 -11 -167 8 -4 6 -8 58 -8 116 0 209 -21 532 -35 560 -8
15 -28 39 -46 54 l-31 26 -8 528 c-10 591 -28 1195 -39 1320 -4 45 -4 87 0 93
7 12 57 39 71 39 5 0 22 8 36 18 28 19 71 30 227 58 255 45 232 36 307 117 69
74 82 109 59 155 -5 9 -17 35 -28 57 -23 50 -58 57 -116 25 l-39 -23 5 44 c3
24 10 65 16 92 7 30 7 56 1 72 -9 23 -15 25 -65 25 -49 0 -116 -19 -175 -49
-8 -5 -19 -24 -25 -44 -13 -45 -17 -49 -48 -42 -44 12 -53 81 -38 302 12 185
12 185 -10 209 -26 27 -43 105 -26 116 7 4 36 15 65 23 30 9 77 27 105 40 61
27 82 32 159 34 48 1 65 -4 108 -31z m6591 -129 c11 -111 24 -139 65 -139 26
0 44 -26 44 -62 0 -45 13 -52 98 -50 l79 2 6 -73 c10 -113 53 -407 87 -592 5
-27 12 -74 15 -103 7 -51 21 -75 83 -140 6 -7 12 -20 12 -29 0 -8 6 -29 14
-46 8 -18 20 -60 26 -95 18 -89 35 -100 138 -91 58 5 92 3 119 -6 37 -13 39
-13 73 21 24 22 45 34 64 34 l28 0 -5 -72 c-9 -124 -26 -290 -37 -363 -6 -38
-13 -109 -17 -157 -5 -83 -4 -90 26 -152 19 -41 31 -80 31 -107 0 -44 17 -117
32 -133 4 -6 8 -22 8 -36 0 -40 38 -56 101 -44 54 12 151 11 187 0 18 -6 22
-15 22 -47 0 -21 1 -42 2 -46 1 -5 -22 -14 -52 -21 -30 -7 -84 -21 -120 -32
-36 -10 -77 -21 -91 -24 -14 -3 -35 -14 -46 -24 -12 -10 -37 -26 -55 -36 -33
-18 -34 -18 -101 13 -75 35 -96 37 -135 17 -41 -21 -155 -34 -415 -47 -166 -8
-242 -8 -249 -1 -6 6 -14 43 -19 84 -29 254 -23 243 -139 234 -41 -3 -127 -8
-191 -12 -109 -6 -117 -6 -122 12 -3 10 -7 91 -9 179 l-3 160 105 12 c58 6
132 17 165 23 33 6 112 15 175 21 75 7 119 15 126 24 25 33 -14 442 -47 490
-4 6 -41 91 -83 190 -42 99 -81 189 -86 200 -46 99 -72 193 -79 280 -7 108
-17 97 95 115 51 8 78 18 93 34 20 21 20 27 11 137 -5 62 -15 175 -21 249 -6
74 -15 146 -19 160 -5 14 -11 68 -15 120 -9 133 13 107 26 -31z m-3894 -190
c15 -7 52 -22 81 -35 29 -13 64 -24 78 -24 14 0 31 -6 39 -13 16 -16 232 -70
395 -98 164 -28 329 -41 613 -46 189 -3 247 -7 247 -17 0 -7 35 -49 78 -94 81
-86 125 -137 130 -152 2 -4 -5 -11 -16 -14 -38 -12 -65 -53 -64 -96 1 -22 6
-48 11 -58 5 -9 14 -57 20 -107 17 -128 27 -153 71 -165 33 -9 154 -1 243 15
36 7 127 -12 127 -26 0 -4 12 -9 28 -12 15 -4 41 -15 57 -25 l30 -19 -5 -98
c-5 -87 -8 -100 -29 -116 -13 -11 -35 -22 -50 -25 -14 -3 -32 -7 -38 -10 -9
-2 -13 -26 -13 -75 0 -59 3 -72 18 -76 34 -9 53 -51 62 -142 5 -48 12 -95 16
-104 3 -9 0 -33 -6 -53 l-12 -36 -147 5 c-80 4 -173 11 -206 17 -33 5 -82 14
-110 19 -27 5 -99 19 -158 31 -60 12 -116 19 -125 16 -10 -3 -55 -19 -102 -35
-77 -28 -96 -30 -212 -31 -80 0 -129 -4 -134 -11 -3 -6 -9 -65 -12 -132 -4
-106 -21 -187 -37 -187 -8 0 -138 71 -150 81 -5 5 -16 9 -25 9 -9 0 -25 9 -35
20 -10 11 -21 20 -26 20 -6 0 -188 100 -239 131 -8 5 -35 20 -60 34 -125 70
-249 150 -324 208 -15 12 -37 26 -47 31 -11 5 -19 13 -19 18 0 4 -9 8 -19 8
-11 0 -26 9 -34 20 -8 11 -48 46 -88 77 -135 102 -413 356 -408 371 2 6 58 66
124 135 120 124 247 262 275 298 8 11 30 36 48 57 48 55 70 107 81 197 6 44
18 130 26 190 8 61 15 116 15 123 0 15 2 15 37 1z m7625 -599 l56 -31 12 -70
c9 -55 17 -73 36 -86 25 -16 29 -15 103 12 44 16 44 16 72 -11 16 -15 29 -34
29 -41 0 -7 4 -13 9 -13 5 0 16 -16 25 -35 9 -19 22 -38 29 -42 7 -4 22 -28
35 -53 34 -69 67 -100 105 -100 51 1 134 45 223 119 6 5 30 21 55 36 24 15 53
36 64 46 19 19 112 82 179 122 17 11 40 27 52 38 11 10 26 19 32 19 7 0 12 5
12 10 0 6 5 10 11 10 6 0 34 19 63 43 l54 44 373 -4 c206 -2 383 -6 394 -8 19
-4 20 -13 22 -331 2 -323 14 -527 35 -612 11 -46 -2 -111 -28 -133 -13 -11
-63 -4 -167 25 -32 9 -67 16 -79 16 -12 0 -46 8 -77 19 -86 29 -172 53 -216
62 -22 4 -74 17 -115 29 -139 40 -181 50 -203 50 -13 0 -27 4 -32 9 -10 9
-248 77 -310 88 -16 3 -35 10 -41 15 -12 9 -104 31 -203 48 -29 5 -58 13 -65
18 -45 36 -401 49 -501 18 -33 -10 -64 -21 -70 -25 -5 -4 -30 -13 -55 -21 -25
-7 -49 -17 -55 -22 -5 -4 -15 -8 -22 -8 -7 0 -36 -11 -65 -24 -29 -13 -75 -34
-103 -46 -27 -12 -57 -28 -65 -34 -8 -7 -46 -22 -85 -35 -38 -13 -72 -26 -75
-30 -6 -7 -45 -23 -136 -55 -34 -12 -68 -27 -75 -32 -31 -24 -38 -23 -58 11
-21 35 -21 36 -73 30 -29 -4 -66 -11 -83 -16 -40 -13 -208 -46 -270 -53 -27
-3 -99 -13 -160 -22 -404 -60 -391 -59 -404 -25 -5 14 -17 56 -25 94 -9 37
-23 95 -31 130 -12 53 -35 179 -35 198 0 3 59 9 131 11 120 5 135 4 166 -15
33 -19 45 -20 206 -13 228 8 476 32 539 51 28 8 75 15 105 15 61 0 203 29 203
42 0 4 13 8 28 8 30 0 140 33 182 55 14 7 44 34 67 59 23 25 49 46 57 46 25 0
136 52 136 64 0 6 8 16 18 23 24 14 52 73 52 107 0 29 -37 107 -57 119 -7 4
-13 17 -13 27 0 10 -4 22 -10 25 -23 14 -3 65 25 65 6 0 37 -14 67 -30z m3730
-234 l308 -1 16 -40 c8 -22 21 -53 28 -70 7 -16 23 -55 36 -85 13 -30 34 -78
46 -106 13 -28 24 -54 24 -57 0 -4 36 -81 80 -171 44 -91 80 -169 80 -175 0
-5 3 -11 8 -13 4 -1 22 -33 41 -70 19 -38 38 -68 43 -68 4 0 8 -8 9 -17 0 -10
9 -31 20 -48 10 -16 26 -46 35 -65 9 -19 48 -88 88 -154 103 -172 110 -185
103 -193 -15 -14 -118 -22 -307 -22 -377 -2 -921 -21 -943 -32 -27 -15 -227
-221 -227 -235 0 -20 -163 -109 -257 -139 -51 -17 -52 -17 -96 9 -41 25 -97
35 -97 18 0 -4 -13 -13 -30 -20 -24 -11 -36 -11 -67 -1 -21 7 -42 17 -48 21
-5 4 -16 8 -24 8 -8 0 -22 6 -30 14 -9 7 -45 28 -81 47 -36 19 -67 36 -70 39
-3 3 -25 16 -50 29 -25 13 -52 29 -60 36 -8 7 -39 25 -67 40 -29 16 -53 31
-53 34 0 4 -31 22 -70 41 l-69 35 -1 45 c0 25 5 72 10 105 5 33 15 121 21 195
6 74 14 137 17 140 13 10 43 70 62 125 16 46 17 64 9 103 -20 93 -55 684 -42
706 4 5 259 6 652 1 355 -5 784 -9 953 -9z m-6202 -72 c52 -8 115 -19 140 -24
25 -4 92 -14 150 -20 150 -17 150 -17 150 -43 0 -34 50 -300 61 -319 5 -10 9
-30 9 -45 0 -59 55 -334 78 -385 l16 -38 85 0 c88 0 255 18 435 45 104 16 114
18 323 58 67 13 127 21 133 17 16 -10 36 -146 31 -217 0 -13 -7 -23 -14 -23
-7 0 -32 -20 -56 -44 l-44 -45 11 -123 c6 -68 16 -159 22 -203 14 -97 8 -193
-13 -226 -9 -13 -28 -55 -42 -94 -24 -62 -40 -100 -79 -184 -7 -16 -24 -28
-46 -33 -19 -5 -44 -13 -55 -18 -11 -4 -47 -11 -80 -13 -33 -3 -67 -8 -75 -11
-9 -4 -28 4 -45 19 -34 28 -146 103 -186 123 -14 8 -39 12 -55 10 -26 -3 -29
-7 -32 -40 -4 -47 -16 -53 -112 -63 -41 -3 -80 -11 -87 -17 -7 -5 -41 -14 -75
-19 -35 -5 -77 -12 -95 -15 -31 -6 -31 -6 -54 65 -13 39 -27 71 -31 71 -4 0
-8 6 -8 13 0 15 -58 140 -69 147 -4 3 -17 25 -29 50 -13 25 -45 73 -72 108
-43 55 -49 71 -55 126 -8 72 -39 135 -75 153 -32 16 -136 17 -195 1 -32 -9
-48 -9 -56 -1 -6 6 -20 48 -30 94 -11 46 -23 94 -26 107 -3 12 -9 22 -13 22
-11 0 -23 84 -23 155 1 133 48 597 64 627 5 10 14 61 20 115 19 178 14 164 62
158 23 -3 85 -13 137 -21z m-5717 -261 c139 -135 138 -133 190 -176 26 -21 52
-43 59 -50 26 -24 97 -77 103 -77 3 0 20 -13 38 -30 18 -16 38 -30 45 -30 6 0
12 -4 12 -8 0 -4 20 -21 45 -36 25 -16 50 -35 56 -42 6 -8 20 -14 30 -14 10 0
22 -6 26 -13 12 -19 117 -86 193 -124 19 -9 42 -24 50 -34 8 -9 33 -25 55 -36
70 -35 188 -99 243 -131 29 -18 57 -32 61 -32 5 0 44 -20 87 -45 44 -25 86
-45 95 -45 25 0 30 -25 14 -71 -8 -23 -15 -52 -15 -65 0 -13 -4 -24 -8 -24
-11 0 -27 -54 -51 -167 -16 -76 -17 -90 -5 -120 8 -18 18 -33 23 -33 4 0 34
-17 65 -37 56 -37 65 -55 47 -91 -5 -9 -17 -36 -26 -59 -19 -44 -23 -47 -93
-58 -62 -10 -72 -30 -72 -145 0 -92 1 -97 30 -130 34 -40 37 -77 18 -192 l-11
-71 -108 6 c-58 4 -126 11 -150 16 -63 14 -375 35 -402 27 -33 -10 -298 -29
-412 -30 -99 0 -188 16 -280 51 -138 53 -174 65 -243 79 -57 12 -98 14 -157 9
-44 -4 -109 -8 -145 -9 l-65 -1 -7 125 c-3 69 -9 168 -13 220 -6 79 -4 108 13
174 22 84 16 126 -18 126 -31 0 -40 22 -40 106 0 46 -5 95 -11 111 -16 41 -18
182 -3 228 7 23 14 109 17 200 l4 160 37 42 c20 23 36 46 36 52 0 5 8 16 18
23 9 7 52 54 94 103 43 50 100 115 128 145 27 30 50 57 50 60 0 3 41 47 90 97
50 51 90 95 90 99 0 6 61 63 68 64 2 0 49 -44 105 -97z m2766 -162 c17 -21 31
-43 31 -47 0 -5 14 -25 31 -44 17 -19 46 -57 64 -85 18 -27 42 -60 54 -72 11
-12 21 -26 21 -32 0 -5 3 -11 8 -13 4 -1 32 -37 62 -78 30 -41 63 -83 73 -92
9 -10 17 -21 17 -25 0 -5 16 -25 35 -47 19 -21 35 -43 35 -48 0 -5 19 -28 43
-51 23 -23 51 -55 60 -70 10 -16 25 -36 32 -45 15 -18 130 -175 155 -212 45
-65 73 -100 81 -100 5 0 9 -8 9 -18 0 -9 10 -28 23 -42 24 -28 87 -127 87
-139 0 -4 -51 -8 -112 -9 -123 -2 -335 -17 -438 -32 -36 -5 -99 -12 -140 -16
-94 -8 -154 -32 -174 -72 -9 -17 -27 -39 -41 -50 -14 -11 -25 -22 -25 -25 0
-3 -18 -32 -40 -64 -22 -32 -86 -125 -141 -208 -55 -82 -107 -160 -117 -173
-9 -13 -26 -40 -37 -60 -11 -21 -41 -67 -66 -102 -26 -36 -56 -83 -68 -105
-26 -49 -44 -78 -52 -85 -4 -3 -9 -15 -13 -27 -4 -13 -14 -23 -23 -23 -14 0
-184 53 -228 71 -46 19 -172 61 -205 68 -19 4 -44 12 -55 18 -11 6 -59 24
-105 39 -47 15 -99 33 -116 40 -18 8 -49 17 -70 22 -38 8 -39 9 -36 47 2 22 8
57 13 78 5 20 11 66 12 100 2 58 0 65 -30 97 -29 31 -33 42 -33 90 1 69 16 90
64 90 27 0 42 7 63 31 37 42 73 133 73 188 0 41 -4 49 -51 92 -29 26 -65 53
-80 60 -34 14 -35 21 -10 102 10 34 29 98 41 142 12 44 26 89 31 100 4 11 21
64 38 117 25 79 31 114 31 189 l0 92 101 -6 c95 -5 106 -3 205 29 92 31 109
34 151 25 27 -5 86 -17 133 -26 47 -9 99 -21 116 -26 17 -5 48 -9 70 -9 21 0
57 -5 79 -10 61 -15 295 -15 326 0 24 11 28 20 34 76 7 70 -3 242 -15 249 -5
3 -6 14 -3 24 7 27 -24 88 -48 94 -18 5 -26 36 -12 50 18 18 53 4 82 -32z
m5956 -45 c142 -30 175 -39 235 -58 25 -8 65 -21 90 -28 25 -7 65 -19 90 -27
25 -8 63 -18 85 -23 60 -13 254 -66 306 -83 24 -8 76 -22 114 -31 96 -21 156
-36 180 -46 11 -4 47 -14 80 -20 33 -7 87 -21 120 -31 33 -9 87 -23 120 -31
33 -7 59 -18 58 -23 -13 -84 -46 -367 -57 -490 -14 -152 -57 -391 -90 -500 -9
-27 -31 -102 -51 -165 -41 -138 -73 -234 -90 -275 -7 -16 -25 -59 -40 -95 -42
-102 -54 -126 -70 -140 -8 -7 -15 -23 -15 -36 0 -15 -6 -24 -15 -24 -9 0 -19
-8 -22 -17 -4 -10 -9 -20 -12 -23 -14 -12 -71 -99 -71 -108 0 -6 -9 -14 -20
-17 -11 -3 -20 -9 -20 -13 0 -4 -23 -31 -50 -61 -28 -29 -50 -56 -50 -60 0 -4
-39 -13 -87 -19 -49 -7 -113 -18 -144 -24 -52 -11 -59 -10 -95 12 -21 13 -41
27 -44 30 -6 7 -129 80 -135 80 -2 0 -24 14 -48 30 -25 17 -51 30 -58 30 -7 0
-19 7 -28 16 -9 8 -61 44 -116 79 -55 35 -112 73 -126 84 -14 11 -39 26 -55
33 -16 7 -40 23 -53 35 -14 12 -38 27 -53 34 -15 6 -28 15 -28 20 0 5 -5 9
-12 9 -16 0 -148 89 -148 100 0 5 9 32 20 60 28 71 26 131 -5 168 -38 45 -91
56 -220 43 -143 -14 -142 -15 -148 12 -6 28 -64 298 -83 392 -19 94 -30 152
-48 263 -13 78 -20 97 -41 114 -14 11 -25 23 -25 27 0 5 28 14 63 20 140 27
150 36 138 127 -5 32 -6 64 -4 71 3 7 -1 45 -7 84 -7 39 -13 88 -15 108 -1 20
-5 47 -9 61 -6 21 -2 29 21 46 15 11 39 23 53 27 193 45 191 44 166 130 -31
111 -36 99 46 124 102 31 107 32 263 28 104 -2 171 -9 260 -29z m-653 -114 l3
-33 -84 -30 c-46 -16 -98 -37 -115 -47 l-31 -19 2 -89 c2 -49 7 -125 12 -169
6 -44 11 -102 13 -130 2 -49 2 -49 -31 -56 -18 -4 -38 -12 -44 -18 -6 -6 -26
-11 -43 -11 -18 0 -36 -4 -39 -10 -3 -5 -15 -10 -25 -10 -10 0 -25 -7 -34 -15
-20 -21 -3 -72 36 -105 25 -22 31 -38 44 -115 8 -50 19 -117 25 -150 6 -32 14
-64 19 -70 10 -12 26 -92 40 -198 5 -38 13 -83 19 -100 5 -18 12 -54 16 -82 4
-27 14 -66 22 -87 l15 -38 109 0 c60 0 109 3 109 8 0 9 120 0 138 -11 20 -13
14 -41 -23 -120 -20 -41 -33 -82 -29 -90 3 -9 27 -30 52 -46 26 -17 72 -48
102 -70 30 -22 61 -40 67 -41 7 0 23 -9 36 -20 21 -19 130 -89 220 -142 21
-13 57 -37 80 -53 23 -17 62 -41 86 -54 24 -13 70 -41 102 -63 32 -21 67 -38
78 -38 38 0 31 -18 -24 -60 -46 -36 -55 -48 -60 -83 -4 -23 -1 -64 5 -91 11
-48 8 -58 -25 -91 -5 -5 -62 -36 -125 -68 -63 -32 -122 -62 -130 -67 -8 -4
-35 -16 -60 -25 -25 -9 -60 -23 -78 -31 -18 -8 -39 -14 -47 -14 -7 0 -15 -4
-17 -8 -1 -4 -42 -20 -90 -36 -48 -15 -94 -34 -102 -42 -8 -8 -27 -14 -43 -14
-15 0 -47 -7 -69 -15 -54 -19 -187 -55 -244 -66 -96 -20 -132 -22 -139 -10 -5
7 -7 69 -5 139 4 176 4 176 -70 211 -118 56 -166 60 -396 26 -129 -18 -153
-34 -166 -104 -10 -54 -20 -68 -59 -81 -41 -13 -55 -7 -55 24 0 12 -4 26 -8
32 -5 5 -14 34 -22 64 -7 30 -25 93 -40 140 -15 47 -35 123 -45 169 -10 46
-24 89 -31 95 -6 7 -14 32 -17 57 -3 24 -9 59 -12 76 -6 27 -4 34 11 39 11 3
28 10 39 14 11 5 30 11 41 15 12 3 32 14 44 25 20 17 22 28 21 103 -1 45 -6
98 -11 117 -9 30 -6 39 18 72 56 78 57 84 52 213 -3 66 -4 125 -2 132 2 7 25
18 50 25 45 13 49 17 84 88 54 110 94 200 108 245 7 22 18 51 24 64 13 28 10
245 -3 331 -5 30 -12 83 -16 117 -7 69 -8 65 74 137 l34 28 -5 104 c-3 69 -1
107 6 113 6 5 36 16 66 26 30 10 76 29 101 42 26 12 51 23 57 23 5 0 49 18 96
40 47 22 89 40 94 40 5 0 30 11 58 24 63 30 135 62 154 68 19 6 27 -7 32 -50z
m-4311 -509 l177 -6 3 -117 c4 -132 11 -145 76 -155 34 -6 187 4 319 21 l51 6
7 -113 c4 -63 12 -133 18 -157 18 -72 27 -74 234 -61 98 6 236 14 307 16 l127
4 0 -133 c0 -112 3 -143 22 -198 13 -36 26 -66 30 -68 5 -2 8 -10 8 -18 0 -8
5 -23 12 -33 9 -15 9 -28 0 -59 -7 -22 -12 -55 -12 -75 0 -20 -4 -38 -8 -41
-19 -11 -35 -144 -28 -232 11 -159 17 -187 48 -233 16 -24 27 -45 25 -47 -2
-3 -42 -6 -88 -8 -141 -6 -259 -19 -265 -28 -3 -4 -39 -8 -80 -8 -58 0 -79 4
-96 19 -127 108 -145 116 -189 84 -36 -27 -67 -43 -81 -43 -13 0 -53 81 -204
409 -16 35 -33 69 -39 76 -5 6 -23 35 -39 65 -16 30 -33 57 -36 60 -4 3 -18
25 -30 50 -13 25 -40 71 -61 103 -22 32 -39 64 -39 71 0 7 -9 22 -20 34 -11
12 -20 28 -20 37 0 8 -3 15 -8 15 -8 0 -9 2 -61 107 -44 87 -107 191 -135 223
-13 14 -34 46 -49 71 -14 25 -40 60 -56 78 -17 18 -31 37 -31 41 0 4 -13 23
-30 41 -16 19 -37 49 -47 67 -10 17 -26 35 -35 38 -10 3 -18 12 -18 21 0 8
-11 28 -25 45 -41 49 -35 52 83 44 59 -3 186 -9 283 -13z m9211 -281 c34 -53
43 -67 48 -72 3 -3 14 -18 24 -35 11 -16 38 -50 61 -75 50 -53 55 -66 60 -163
2 -41 9 -94 14 -118 6 -24 18 -107 26 -184 24 -221 34 -296 44 -350 5 -27 15
-98 22 -157 6 -58 15 -111 19 -118 4 -7 47 -12 113 -14 64 -1 112 -7 119 -14
9 -9 25 -184 27 -304 2 -55 22 -61 159 -54 134 8 161 14 196 48 22 22 146 203
146 214 0 6 40 63 58 83 20 21 64 15 192 -25 63 -20 133 -38 155 -41 22 -3 49
-12 60 -19 46 -30 84 13 125 141 26 83 28 85 62 86 18 0 114 4 213 8 99 4 187
6 196 3 9 -2 17 -13 18 -25 0 -12 3 -112 7 -222 l6 -200 -40 -36 c-59 -52 -65
-75 -47 -179 9 -57 20 -79 54 -110 38 -35 57 -75 66 -140 3 -30 10 -68 15 -85
5 -16 13 -49 19 -72 6 -24 16 -60 21 -80 11 -40 14 -86 26 -418 4 -115 10
-212 13 -215 12 -9 61 -98 61 -111 0 -9 -41 -10 -172 -6 -251 8 -568 26 -683
38 -55 5 -125 12 -155 15 -30 2 -113 13 -185 24 -251 37 -274 40 -334 40 -33
0 -70 4 -83 9 -28 11 -432 107 -508 120 -30 6 -82 15 -114 21 -78 13 -203 13
-263 -1 -66 -15 -176 -46 -249 -70 -34 -10 -78 -19 -97 -19 -33 0 -51 5 -112
31 -40 17 -161 61 -182 66 -15 4 -23 15 -27 41 -20 136 -42 245 -66 327 -5 17
-11 50 -15 75 -6 43 -50 284 -56 305 -1 6 2 28 8 50 6 22 16 74 22 115 7 41
19 111 27 155 9 44 19 103 24 130 4 28 20 90 34 139 30 105 25 148 -27 210
-18 21 -51 61 -75 90 -24 28 -52 62 -63 74 -10 13 -19 30 -19 37 0 7 -16 39
-35 71 -35 57 -35 59 -35 171 0 85 -4 123 -17 153 -10 22 -21 40 -25 40 -5 0
-8 5 -8 11 0 6 -10 24 -21 41 -20 28 -21 37 -15 171 4 78 9 187 11 242 2 54 7
105 9 112 4 10 51 13 203 13 239 0 708 18 766 30 23 4 69 8 102 9 55 1 61 -1
77 -27z m-1236 -109 c-3 -54 -11 -174 -16 -267 l-9 -170 24 -32 c14 -18 25
-35 25 -39 0 -3 8 -15 19 -26 23 -25 28 -57 30 -187 2 -103 10 -144 30 -157 6
-3 21 -27 32 -53 28 -62 107 -179 125 -186 8 -3 14 -12 14 -20 0 -8 8 -21 19
-28 10 -7 26 -28 35 -47 17 -33 17 -36 -7 -125 -14 -50 -31 -125 -37 -166 -6
-41 -18 -100 -25 -130 -8 -30 -17 -77 -20 -105 -3 -27 -11 -75 -17 -105 -8
-40 -8 -79 1 -145 17 -138 31 -209 42 -219 5 -6 9 -20 9 -33 0 -12 4 -42 10
-65 11 -50 38 -192 50 -263 4 -27 11 -62 15 -76 l6 -25 -158 -12 c-87 -6 -232
-13 -323 -14 l-165 -2 -75 38 c-41 21 -87 47 -102 57 -14 11 -31 19 -37 19 -6
0 -32 14 -58 30 -26 17 -55 30 -65 30 -10 0 -21 7 -24 15 -4 8 -23 23 -43 32
-20 9 -38 19 -41 22 -3 4 -18 12 -35 20 -16 7 -38 18 -49 23 -25 13 -172 28
-278 28 -84 0 -87 1 -130 36 -23 20 -61 53 -83 75 -83 80 -277 227 -377 287
-16 9 -28 20 -28 24 0 4 -5 8 -10 8 -6 0 -29 14 -52 30 -22 17 -47 30 -55 30
-7 0 -13 5 -13 10 0 6 -12 16 -27 23 -15 6 -35 20 -45 29 -9 9 -36 27 -60 39
-24 12 -45 24 -48 28 -8 10 -83 57 -129 80 -33 17 -52 21 -82 16 -26 -5 -39
-3 -39 5 0 10 37 68 51 80 3 3 27 35 52 71 26 37 76 98 112 135 36 38 65 72
65 75 0 3 12 19 26 35 54 62 194 298 194 329 0 4 13 35 28 69 23 50 67 179
142 422 6 17 10 43 10 58 0 15 6 39 14 54 20 38 66 271 66 333 0 38 18 73 27
52 2 -7 9 -13 13 -13 5 0 29 -13 53 -30 25 -16 50 -30 56 -30 6 0 11 -5 11
-10 0 -6 12 -16 28 -22 15 -7 36 -19 47 -28 39 -33 339 -187 418 -216 36 -13
66 -7 87 17 17 19 46 18 81 -6 21 -14 47 -25 58 -25 20 0 80 20 139 46 20 9
51 22 67 30 17 7 47 24 68 38 21 14 42 26 47 26 5 0 18 12 28 28 29 39 206
213 234 228 13 7 32 13 42 14 18 0 18 -6 12 -97z m-5892 -98 c20 -30 36 -58
36 -62 0 -5 9 -14 20 -21 11 -7 20 -18 20 -25 0 -7 27 -67 60 -132 33 -66 60
-129 60 -140 1 -34 34 -89 61 -104 23 -13 37 -13 115 2 49 9 150 26 224 37
135 20 158 30 173 73 5 14 67 -14 102 -46 11 -10 40 -30 63 -44 41 -24 48 -25
109 -16 90 13 93 9 93 -127 l0 -108 -41 -53 c-34 -46 -39 -59 -34 -89 3 -19 8
-70 12 -112 l6 -77 -29 -11 c-16 -6 -53 -23 -81 -37 -51 -24 -53 -27 -53 -65
0 -22 4 -47 9 -56 5 -10 12 -49 16 -88 l7 -71 -46 -29 c-25 -16 -46 -32 -46
-36 0 -5 -9 -8 -20 -8 -11 0 -29 -9 -40 -20 -11 -11 -25 -20 -31 -20 -6 0 -30
-13 -54 -30 -24 -16 -49 -30 -55 -30 -6 0 -31 -13 -55 -30 -24 -16 -48 -30
-54 -30 -5 0 -13 32 -17 72 l-7 72 -99 97 c-72 70 -111 101 -146 114 -131 47
-211 79 -247 98 -44 24 -129 26 -220 7 -47 -10 -82 -15 -283 -42 l-83 -11 -40
44 c-44 49 -44 47 -59 177 -12 95 -12 102 27 332 19 113 19 121 -1 162 -9 17
-16 37 -16 45 0 7 -4 21 -9 31 -25 49 -36 116 -36 232 l0 124 27 10 c22 8 40
5 85 -15 65 -27 142 -31 170 -8 19 15 52 35 96 57 25 12 218 58 258 61 9 1 32
-23 53 -54z m-2076 -243 c34 -72 88 -169 138 -248 24 -40 44 -76 44 -82 0 -5
7 -15 15 -22 9 -7 23 -29 32 -49 9 -20 22 -43 29 -51 23 -28 105 -186 195
-378 22 -45 39 -84 39 -87 0 -3 14 -33 30 -67 17 -34 30 -65 30 -70 0 -5 9
-28 21 -51 22 -45 28 -155 9 -167 -10 -6 -158 -19 -461 -40 -148 -11 -159 -10
-200 9 -34 15 -75 21 -184 25 -301 13 -392 27 -660 105 -38 11 -99 28 -135 38
-36 10 -67 20 -70 23 -3 3 -25 12 -50 20 -25 7 -49 17 -55 20 -15 10 -179 80
-189 80 -4 0 -14 6 -22 14 -7 8 -19 16 -26 18 -9 3 -9 12 1 36 7 18 17 32 22
32 5 0 9 9 9 19 0 10 6 21 13 24 11 4 39 47 132 201 11 19 53 82 93 140 39 59
72 111 72 116 0 4 4 10 8 12 4 2 37 46 71 98 79 117 170 241 190 256 15 12
136 32 236 38 193 13 328 25 333 30 3 3 64 6 136 6 l131 0 23 -48z m-4098
-552 c0 -5 9 -10 20 -10 12 0 49 -9 83 -20 l63 -20 -9 -58 c-14 -94 -20 -629
-8 -702 6 -36 15 -123 21 -195 7 -71 16 -152 21 -180 5 -27 16 -106 24 -175
22 -193 61 -427 94 -565 6 -22 16 -69 24 -105 8 -36 22 -92 32 -125 27 -96 36
-128 42 -153 l6 -23 -109 4 c-60 2 -167 12 -238 22 -124 18 -132 18 -180 1
-145 -50 -251 -91 -254 -98 -7 -15 -78 -8 -118 11 -56 27 -67 42 -54 75 7 20
16 26 39 26 28 0 54 24 101 90 19 28 176 80 239 80 43 0 52 4 101 53 30 28 61
62 68 74 15 27 16 53 2 53 -5 0 -10 7 -10 15 0 21 -56 42 -205 76 -71 17 -173
41 -225 54 -98 25 -494 155 -565 185 -22 10 -62 26 -90 35 -27 10 -74 28 -103
41 -29 13 -65 24 -80 24 -19 0 -45 18 -89 59 -66 63 -76 68 -168 81 -33 5
-106 19 -162 32 -78 17 -108 20 -130 12 -24 -9 -39 -5 -97 22 -37 18 -83 48
-102 67 -23 23 -56 41 -108 57 l-74 23 -6 45 c-9 69 -7 178 4 208 20 51 42
238 36 297 -3 32 -2 65 3 75 5 9 17 35 28 57 21 45 20 44 188 65 50 6 114 15
144 21 30 5 75 9 101 9 82 0 290 35 290 49 0 3 18 12 41 19 23 7 78 30 123 51
92 43 119 47 386 56 224 9 304 34 430 135 l75 60 85 1 c47 0 94 4 105 9 28 12
165 12 165 0z m447 -131 c74 -10 129 -10 290 0 109 7 215 17 236 22 33 9 308
-5 327 -16 9 -5 242 -28 285 -28 22 1 86 -14 142 -33 55 -19 110 -34 121 -34
12 0 23 -4 27 -9 3 -6 38 -20 78 -32 39 -12 76 -26 81 -31 6 -4 17 -8 26 -8
20 0 70 -23 70 -32 0 -3 -31 -29 -70 -57 -84 -62 -99 -83 -110 -158 -4 -32
-14 -74 -23 -93 -14 -35 -77 -110 -91 -110 -11 0 -55 -54 -56 -68 0 -27 -41
-71 -74 -82 -46 -15 -62 -36 -75 -101 -12 -59 -68 -158 -89 -159 -30 0 -34
-52 -17 -180 10 -69 22 -129 26 -134 5 -6 9 -20 9 -33 0 -13 9 -31 20 -40 16
-14 20 -30 20 -78 0 -34 5 -66 12 -73 8 -8 51 -12 130 -12 103 0 124 -3 171
-24 29 -14 61 -34 71 -45 18 -20 18 -22 -8 -82 l-28 -60 21 -121 c21 -126 33
-153 63 -145 10 3 28 -3 39 -12 31 -25 20 -86 -16 -95 -14 -4 -123 -9 -243
-12 -119 -3 -307 -9 -416 -14 -109 -6 -355 -10 -547 -10 l-347 0 -7 30 c-4 16
-11 32 -16 35 -5 4 -9 18 -9 33 -1 15 -17 86 -36 157 -19 72 -46 186 -59 255
-14 69 -31 161 -40 205 -21 112 -40 244 -60 420 -9 83 -20 166 -26 185 -32
121 -44 871 -15 919 3 5 32 1 63 -9 32 -10 99 -24 150 -31z m1853 -246 c19 -3
44 -12 55 -19 11 -6 47 -20 79 -29 33 -9 89 -32 125 -50 123 -63 236 -113 326
-145 50 -18 112 -41 139 -51 27 -11 62 -19 77 -19 16 0 29 -4 29 -8 0 -7 55
-22 238 -62 23 -6 53 -10 66 -10 l24 0 1 -282 c2 -331 16 -615 35 -696 15 -63
73 -192 87 -192 5 0 9 -8 9 -18 0 -14 -13 -22 -52 -32 -29 -7 -68 -21 -86 -32
-18 -10 -38 -18 -45 -18 -7 0 -39 -14 -72 -30 -33 -16 -69 -30 -80 -30 -11 0
-60 -14 -110 -30 -85 -29 -201 -54 -450 -99 -91 -17 -411 -51 -505 -55 -15 -1
-25 5 -25 14 -3 45 -19 118 -29 132 -7 9 -25 18 -41 20 -24 3 -30 10 -46 58
-19 58 -25 155 -10 164 15 10 51 94 51 121 0 18 -14 34 -52 63 -87 63 -145 82
-259 82 -55 0 -99 3 -99 8 0 4 4 24 9 44 9 39 4 48 -48 90 -13 12 -21 30 -21
50 0 18 -4 51 -9 73 -5 22 -12 63 -15 90 -6 47 -4 52 29 88 40 43 75 107 75
135 0 11 5 33 11 51 8 24 17 31 36 31 30 0 93 61 93 90 0 11 20 38 45 62 57
53 114 131 127 172 5 17 13 55 16 85 l7 54 95 74 c68 53 101 72 115 68 11 -3
36 -9 55 -12z m3895 -73 c36 -16 70 -30 76 -30 11 0 67 -23 101 -41 10 -5 28
-9 41 -9 16 0 40 -17 71 -50 26 -27 50 -50 54 -50 4 0 16 -14 27 -30 11 -16
25 -30 32 -30 18 0 25 -57 21 -172 -2 -73 -8 -113 -20 -137 -13 -24 -18 -57
-18 -113 0 -75 1 -79 25 -88 14 -5 52 -7 86 -3 56 6 62 4 89 -22 17 -16 30
-35 30 -42 0 -8 13 -41 30 -74 16 -33 32 -75 36 -94 3 -19 10 -35 15 -35 5 0
9 -15 9 -34 0 -41 19 -59 55 -50 26 6 75 -11 75 -27 0 -4 -6 -14 -14 -21 -7
-8 -16 -35 -20 -61 -12 -77 -30 -87 -157 -87 -59 0 -110 -4 -113 -9 -6 -9 -85
-15 -401 -28 -244 -10 -289 -7 -339 19 -22 13 -42 26 -44 31 -2 4 -17 7 -33 7
-16 0 -29 3 -29 8 0 9 -115 32 -160 32 -20 0 -33 6 -36 18 -9 27 -24 64 -40
95 -8 16 -14 37 -14 48 0 10 -4 19 -10 19 -5 0 -10 9 -10 19 0 11 -4 23 -10
26 -5 3 -10 15 -10 25 0 11 -9 35 -20 55 -11 20 -20 42 -20 50 0 8 -4 15 -8
15 -4 0 -14 21 -22 48 -7 26 -22 54 -32 63 -10 9 -18 24 -18 33 0 9 -4 16 -9
16 -20 0 2 642 23 658 6 5 70 14 141 21 72 6 155 16 185 21 30 5 104 15 165
20 60 6 111 13 114 16 11 10 45 2 106 -26z m-1333 -5 c75 -70 91 -75 222 -75
67 0 159 7 206 15 52 9 88 11 94 5 5 -5 4 -77 -3 -187 -6 -98 -11 -231 -11
-295 l0 -117 -38 -10 c-21 -6 -46 -17 -57 -25 -11 -9 -27 -16 -36 -16 -9 0
-36 -13 -60 -30 -24 -16 -51 -30 -59 -30 -13 0 -203 -96 -285 -144 -11 -7 -46
-27 -78 -45 -32 -19 -61 -40 -64 -47 -3 -8 -12 -14 -20 -14 -26 0 -132 -80
-200 -152 -187 -196 -214 -219 -292 -249 -31 -12 -103 -27 -160 -35 -58 -8
-109 -18 -115 -24 -5 -5 -32 -10 -58 -10 -26 0 -68 -5 -92 -12 -73 -20 -87 -4
-182 207 -9 21 -16 122 -23 345 -6 173 -13 373 -17 443 -4 89 -2 132 6 142 9
11 42 13 158 9 228 -8 253 -10 322 -29 69 -19 73 -19 445 5 233 14 264 19 281
45 22 34 35 173 20 210 -38 90 -38 91 13 118 58 31 52 31 83 2z m4625 -162
c21 -10 43 -24 49 -32 9 -11 28 -10 117 4 59 10 110 15 113 12 9 -9 -25 -66
-46 -77 -11 -6 -20 -16 -20 -23 0 -7 -11 -33 -25 -59 -14 -26 -25 -58 -25 -71
0 -12 -4 -27 -8 -32 -5 -6 -14 -30 -21 -55 -8 -25 -22 -72 -32 -105 -38 -125
-79 -381 -79 -494 0 -51 -4 -81 -12 -83 -8 -3 -11 -92 -12 -329 l-1 -324 43
-53 c23 -30 42 -58 42 -64 0 -7 -54 -8 -172 -2 -292 15 -508 5 -628 -29 -69
-20 -164 -63 -180 -82 -7 -8 -18 -15 -24 -15 -7 0 -21 -8 -32 -17 -28 -25 -82
-63 -89 -63 -11 0 -65 54 -65 64 0 5 -26 39 -58 75 -32 36 -80 94 -106 128
-26 34 -51 65 -56 68 -22 14 -111 158 -106 173 5 18 12 179 22 472 8 235 13
288 31 294 8 4 19 3 25 0 23 -14 365 63 463 105 11 5 46 17 78 26 32 9 64 23
72 31 7 8 22 14 32 14 27 0 127 38 131 50 2 6 13 10 24 10 11 0 48 13 82 29
33 16 71 32 83 35 11 4 27 13 33 21 7 8 18 15 25 15 27 0 155 93 180 132 25
38 27 46 20 112 l-6 72 42 42 c24 23 46 42 51 42 4 0 24 -8 45 -17z m-2298
-145 c12 -37 21 -76 21 -87 0 -12 9 -44 20 -73 11 -29 20 -59 20 -67 0 -18 49
-142 62 -158 14 -17 49 -16 113 2 73 22 102 49 115 110 6 28 14 55 18 62 8 13
212 38 288 35 30 -1 76 -12 107 -26 l55 -24 4 -182 c1 -100 0 -216 -4 -258 -4
-43 -11 -214 -17 -380 -6 -167 -13 -307 -16 -312 -13 -21 76 -169 144 -239 9
-9 25 -30 36 -45 11 -16 43 -56 70 -88 28 -33 63 -76 78 -96 15 -20 35 -45 43
-56 14 -16 14 -19 -3 -31 -10 -7 -31 -25 -48 -39 -16 -14 -33 -26 -37 -26 -7
0 -74 -48 -121 -86 -9 -8 -23 -14 -31 -14 -7 0 -21 -9 -31 -20 -10 -11 -22
-20 -28 -20 -5 0 -29 -13 -54 -30 -24 -16 -48 -30 -53 -30 -14 0 -21 -36 -11
-61 20 -50 103 -89 191 -89 48 0 80 -30 80 -74 0 -65 -50 -126 -102 -126 -13
0 -45 14 -73 30 -78 46 -127 37 -185 -35 -19 -24 -38 -44 -41 -44 -3 -1 -30
33 -60 74 -29 41 -59 75 -66 75 -7 0 -13 7 -13 16 0 18 -98 144 -112 144 -4 0
-8 7 -8 16 0 9 -8 24 -18 33 -18 17 -55 63 -112 142 -94 131 -203 269 -211
269 -5 0 -9 5 -9 11 0 11 -55 95 -77 117 -7 7 -13 18 -13 23 0 5 -7 9 -15 9
-8 0 -15 7 -15 16 0 15 -26 51 -80 111 -11 12 -20 26 -20 30 0 5 -13 24 -29
44 -16 19 -33 52 -36 72 -4 20 -11 37 -15 37 -4 0 -10 19 -12 43 -3 23 -13 82
-24 130 -22 102 -19 107 59 107 81 0 162 54 171 112 19 122 27 158 37 158 12
0 11 37 -1 61 -9 16 -22 19 -78 19 l-68 0 -12 45 c-7 25 -12 54 -12 65 0 12
-11 43 -25 70 -14 27 -25 61 -25 76 0 36 -59 92 -103 96 -30 3 -64 -2 -114
-17 -22 -7 -23 -5 -23 41 1 27 9 67 20 89 11 22 20 47 20 55 1 32 24 49 195
140 130 70 190 104 195 110 3 4 19 14 35 23 35 18 31 23 64 -85z m2688 -109
c47 -27 116 -72 123 -80 3 -4 23 -15 45 -27 22 -11 49 -29 59 -41 11 -12 27
-21 37 -21 9 0 19 -4 21 -8 4 -11 154 -112 166 -112 5 0 15 -6 21 -14 7 -8 44
-36 84 -62 40 -27 74 -51 77 -55 3 -3 28 -21 55 -40 59 -40 101 -76 169 -142
93 -92 96 -93 246 -106 74 -7 135 -13 135 -14 1 -10 45 -80 69 -110 29 -37 30
-43 36 -163 3 -73 10 -128 16 -132 26 -17 42 -107 25 -140 -15 -27 -38 -84
-50 -123 -6 -20 -36 -64 -65 -98 -56 -65 -69 -96 -82 -206 -3 -33 -15 -77 -25
-97 -14 -28 -19 -59 -19 -123 0 -119 -13 -146 -82 -169 -30 -11 -63 -26 -74
-35 -18 -15 -44 -72 -73 -162 -14 -44 -15 -119 -1 -119 6 0 10 -5 10 -11 0 -6
16 -30 36 -52 l37 -40 -6 -106 c-3 -58 -12 -126 -20 -151 l-14 -45 -84 -7
c-46 -3 -120 -12 -164 -18 -44 -7 -120 -14 -170 -17 -49 -3 -94 -9 -100 -14
-5 -5 -24 -9 -43 -9 -18 0 -52 -4 -75 -9 -49 -11 -179 -37 -287 -57 -96 -18
-391 -19 -408 -2 -7 7 -12 36 -12 65 0 29 -4 85 -9 125 -21 158 -33 343 -37
543 -3 205 1 256 31 400 8 39 19 95 25 126 l11 56 72 13 c75 14 87 22 87 56 0
24 -22 74 -32 74 -5 0 -8 5 -8 10 0 6 -9 20 -20 32 -44 47 -47 70 -44 318 3
308 21 527 60 740 15 86 65 282 82 323 7 15 15 39 18 52 6 23 11 25 60 25 36
0 65 -7 91 -21z m-4457 -383 c16 -36 34 -67 40 -71 5 -3 10 -17 10 -30 0 -23
14 -61 58 -155 35 -73 82 -213 82 -241 0 -18 -8 -29 -25 -37 -14 -6 -25 -15
-25 -20 0 -12 -32 -48 -46 -53 -18 -6 -102 -86 -114 -108 -5 -11 -10 -46 -10
-79 0 -69 5 -65 -106 -83 -43 -7 -84 -16 -90 -21 -6 -5 -17 -30 -23 -56 -7
-26 -19 -67 -28 -92 -17 -49 -23 -72 -50 -197 -10 -45 -22 -85 -26 -89 -4 -4
-7 -15 -7 -24 0 -9 -21 -36 -47 -60 -27 -24 -95 -88 -153 -143 -58 -55 -120
-113 -138 -130 -19 -17 -41 -42 -50 -56 -19 -31 -42 -57 -99 -117 -24 -24 -43
-48 -43 -54 0 -6 -7 -18 -15 -26 -8 -9 -18 -33 -21 -55 -4 -22 -10 -42 -15
-44 -10 -6 -136 -22 -242 -30 -56 -5 -91 -13 -122 -31 -55 -30 -60 -30 -81 5
-25 43 -57 53 -175 59 l-107 4 -10 57 c-6 31 -16 101 -22 156 -7 55 -15 118
-19 140 -13 66 -13 363 -1 460 6 50 18 137 26 195 9 58 15 135 15 172 0 37 3
70 8 72 5 3 58 13 117 21 237 33 309 46 346 66 10 5 25 9 33 9 8 0 15 4 15 8
0 5 12 15 28 23 52 27 154 123 222 211 40 52 135 126 215 169 22 12 47 28 56
35 8 8 35 24 60 37 24 13 64 35 89 48 25 14 54 30 65 36 11 6 38 20 60 31 22
11 58 29 80 40 138 68 232 111 243 112 7 0 26 -29 42 -64z m5853 -371 c20 -8
38 -19 42 -25 3 -5 23 -17 43 -27 20 -9 50 -26 67 -37 28 -20 70 -43 207 -116
32 -16 64 -30 72 -30 8 0 16 -6 18 -12 4 -10 54 -12 214 -10 116 2 224 5 240
7 16 2 72 6 124 10 52 3 117 11 143 18 34 8 50 8 55 0 11 -17 104 -62 142 -69
19 -4 40 -10 45 -14 22 -15 125 -41 143 -36 14 5 22 -1 30 -19 7 -14 12 -30
12 -36 0 -5 11 -26 24 -47 12 -20 27 -48 31 -62 4 -14 16 -36 26 -49 11 -13
19 -33 19 -45 0 -12 4 -26 8 -31 15 -18 32 -91 32 -140 0 -67 18 -170 41 -233
25 -69 34 -153 20 -180 -6 -11 -31 -28 -56 -37 -25 -10 -45 -22 -45 -26 0 -5
-11 -9 -25 -9 -45 0 -93 -27 -111 -62 -9 -18 -32 -53 -51 -77 -36 -48 -41 -87
-24 -178 5 -26 12 -72 16 -101 l6 -53 -61 -63 c-33 -34 -60 -68 -60 -74 0 -7
-4 -12 -9 -12 -5 0 -11 -10 -14 -22 -32 -143 -48 -226 -48 -267 -2 -84 27 -79
-319 -50 -63 5 -175 13 -248 19 -74 5 -138 12 -143 15 -4 3 -59 12 -121 20
-165 21 -255 33 -328 46 -36 6 -105 15 -155 19 -291 26 -351 33 -357 39 -3 3
-2 26 4 51 6 25 13 102 15 172 l4 127 -38 38 c-66 67 -64 62 -40 133 13 36 28
75 35 87 12 22 101 73 128 73 7 0 25 17 38 38 20 31 25 53 28 139 4 78 10 109
25 135 12 21 23 63 27 109 9 89 32 141 92 205 26 28 49 65 55 89 18 67 40 129
50 139 11 12 12 126 2 126 -21 0 -42 92 -46 199 -4 102 -7 117 -26 132 -11 9
-21 21 -21 26 0 5 -9 15 -20 23 -42 30 -16 40 43 15z m-5403 -180 c9 -8 24
-15 33 -15 8 0 22 -6 29 -13 40 -38 68 -46 165 -49 l98 -3 -3 -90 c-2 -66 -8
-97 -21 -115 -9 -14 -21 -34 -25 -45 -11 -28 -47 -182 -53 -230 -3 -22 -9 -42
-13 -45 -4 -3 -17 -54 -29 -114 -21 -108 -21 -109 -1 -140 11 -17 42 -53 70
-81 l50 -49 0 -121 c-2 -257 -70 -550 -184 -779 -45 -91 -59 -110 -121 -162
-38 -33 -99 -81 -135 -106 -36 -26 -74 -55 -86 -65 -32 -28 -62 -43 -76 -37
-7 3 -40 37 -73 75 -33 38 -77 88 -97 112 -21 23 -38 45 -38 50 0 4 -7 7 -15
7 -9 0 -21 12 -28 28 -6 15 -35 58 -64 97 -29 38 -53 75 -53 80 0 6 -9 17 -20
25 -11 8 -20 19 -20 25 0 6 -13 26 -30 45 -16 19 -29 38 -30 42 0 4 -13 27
-30 51 -16 25 -30 49 -30 54 0 5 -9 16 -20 26 -11 9 -20 26 -20 37 0 11 -4 20
-9 20 -5 0 -13 9 -16 20 -3 11 -12 26 -19 32 -6 7 -27 40 -45 73 -19 33 -48
78 -66 100 -18 22 -35 48 -38 58 -5 14 33 58 161 186 169 171 192 203 192 274
0 13 4 27 9 33 7 8 33 99 71 251 9 37 15 44 48 53 20 5 54 10 74 10 83 0 108
32 108 140 0 42 4 70 10 70 6 0 21 10 34 23 12 12 63 59 112 104 75 68 96 82
122 81 18 -1 35 1 38 5 8 8 64 -10 84 -28z m890 -91 c0 -13 7 -49 16 -81 9
-32 18 -69 21 -83 3 -14 14 -55 25 -91 17 -58 29 -79 78 -136 6 -7 25 -34 42
-60 18 -27 77 -109 132 -183 98 -131 111 -148 149 -192 9 -12 17 -25 17 -29 0
-4 6 -14 13 -21 7 -7 23 -26 35 -43 31 -42 63 -82 89 -111 13 -14 29 -37 37
-53 8 -15 44 -64 80 -109 36 -46 66 -87 66 -92 0 -6 7 -10 15 -10 8 0 15 -4
15 -8 0 -5 27 -42 60 -83 32 -41 67 -88 76 -105 17 -30 16 -31 -27 -95 -24
-35 -46 -66 -49 -69 -12 -10 -90 -132 -90 -141 0 -5 -3 -9 -7 -9 -5 0 -16 -14
-26 -31 -17 -31 -19 -31 -68 -25 -28 4 -97 11 -153 16 -56 5 -109 12 -117 15
-12 5 -18 26 -23 83 -8 85 -11 94 -43 111 -32 17 -49 7 -150 -87 -32 -29 -39
-32 -67 -23 -17 5 -71 17 -121 26 -112 20 -188 34 -242 46 -68 15 -182 11
-199 -6 -19 -18 -29 -19 -46 -2 -22 21 -106 77 -116 77 -16 0 -19 21 -10 65 5
22 13 74 19 115 5 41 15 91 24 110 8 19 19 53 25 75 12 50 13 360 1 384 -5 9
-35 42 -65 73 -31 31 -56 65 -56 75 0 21 49 253 78 366 11 43 27 86 36 96 9 9
16 23 16 29 0 7 5 12 10 12 6 0 10 43 10 110 l0 110 28 1 c15 1 29 1 32 1 3 0
96 7 205 17 218 19 225 18 225 -35z m6612 25 c9 -5 33 -9 52 -9 20 0 55 -4 78
-10 93 -22 184 -42 213 -47 17 -3 35 -9 40 -13 6 -4 39 -13 75 -19 36 -7 76
-16 90 -21 28 -9 123 -24 255 -40 50 -6 133 -18 185 -27 106 -17 213 -29 405
-44 271 -21 388 -28 640 -40 143 -6 264 -15 269 -20 6 -5 4 -37 -3 -79 -11
-60 -18 -76 -47 -102 -19 -17 -34 -39 -34 -48 0 -10 -6 -23 -14 -29 -8 -7 -18
-26 -21 -42 -4 -16 -11 -29 -16 -29 -5 0 -9 -4 -9 -10 0 -5 -14 -40 -31 -77
-30 -65 -30 -70 -21 -138 15 -106 19 -100 -62 -100 -39 0 -89 -6 -112 -14 -36
-11 -45 -21 -72 -77 -37 -75 -40 -109 -12 -166 17 -36 18 -47 8 -80 -6 -21
-17 -43 -25 -49 -8 -7 -13 -33 -13 -70 0 -52 -5 -67 -45 -131 -25 -40 -45 -76
-45 -81 0 -5 -12 -27 -27 -50 -16 -23 -33 -51 -39 -62 -9 -16 -23 -21 -65 -22
-139 -7 -174 -24 -218 -111 -24 -47 -61 -180 -61 -220 0 -21 -8 -32 -34 -46
-19 -10 -54 -36 -78 -57 l-43 -40 -85 5 c-106 5 -390 47 -731 106 -30 6 -78
10 -107 10 -28 0 -71 4 -94 10 -59 13 -276 38 -438 50 -171 14 -413 39 -418
45 -5 4 20 160 40 250 16 72 33 101 104 174 35 36 64 72 64 81 0 27 -31 223
-36 232 -8 13 63 134 92 157 14 11 35 23 47 26 117 31 147 48 171 99 24 51 21
143 -8 207 -21 50 -28 90 -42 269 -3 36 -10 79 -16 95 -19 56 -72 180 -90 210
-39 66 -55 132 -30 128 6 -2 12 1 12 6 0 4 17 11 38 14 20 4 71 16 112 28 41
12 91 24 110 28 40 8 117 2 142 -10z m-9703 -231 c0 -29 -7 -93 -14 -143 -40
-257 -47 -339 -41 -515 6 -182 14 -276 40 -470 8 -63 18 -176 21 -250 4 -74 8
-150 10 -168 3 -28 0 -35 -21 -43 -14 -5 -44 -9 -67 -9 -73 0 -223 -32 -252
-54 -18 -13 -58 -202 -50 -234 3 -13 21 -32 39 -43 l34 -20 4 -232 c2 -128 2
-240 0 -249 -3 -11 -17 -19 -36 -22 -48 -7 -382 -38 -465 -43 -62 -4 -74 -8
-78 -24 -5 -16 -15 -19 -69 -19 -72 0 -80 7 -70 64 4 22 13 36 26 39 26 7 26
46 1 95 -33 64 -39 85 -44 148 -3 34 -12 77 -20 95 -9 19 -23 67 -31 107 -14
71 -29 102 -48 102 -5 0 -23 13 -40 29 -41 39 -34 72 19 90 63 21 92 54 119
134 33 101 32 162 -5 213 -27 37 -36 61 -47 129 -3 17 -9 39 -14 50 -5 11 -15
47 -23 80 -8 33 -16 65 -18 70 -2 6 0 30 4 54 9 49 -8 98 -35 107 -15 4 -18
18 -18 77 0 53 -5 82 -20 110 -11 20 -20 44 -20 52 0 8 -4 15 -10 15 -5 0 -10
4 -10 10 0 23 -52 120 -72 134 -13 9 -32 13 -50 9 -29 -6 -68 18 -68 41 0 6
-9 17 -20 24 -11 7 -20 19 -20 28 0 9 -16 35 -35 58 -29 35 -34 49 -29 73 7
34 1 33 239 53 142 12 284 28 352 39 191 32 248 44 251 52 2 5 19 9 37 9 54 0
248 55 350 99 11 5 35 14 53 21 17 7 32 16 32 21 0 5 11 9 23 9 13 0 38 7 56
16 27 13 90 28 139 33 8 1 12 -15 11 -51z m-3544 -291 c111 -24 1816 -7 1907
19 14 4 17 -3 16 -45 0 -37 6 -59 23 -83 13 -18 27 -34 31 -36 4 -2 8 -8 8
-13 0 -6 5 -15 10 -22 22 -26 60 -83 69 -104 13 -28 41 -43 84 -43 33 0 35 -3
70 -79 20 -44 41 -82 47 -86 5 -3 10 -40 10 -81 0 -65 3 -80 25 -109 21 -27
25 -40 20 -71 -4 -24 0 -62 10 -99 9 -33 19 -70 22 -82 3 -13 9 -23 13 -23 4
0 10 -27 13 -60 4 -33 14 -75 22 -92 30 -62 40 -78 47 -78 16 0 7 -88 -12
-128 -11 -22 -20 -45 -20 -49 -1 -14 -72 -63 -92 -63 -32 0 -49 -27 -55 -84
-8 -81 -1 -98 55 -126 52 -26 72 -63 72 -134 0 -18 9 -53 20 -77 11 -24 20
-61 20 -82 0 -37 30 -109 50 -122 14 -9 12 -42 -2 -47 -7 -3 -33 -6 -58 -7
-25 -1 -84 -5 -132 -9 -70 -6 -89 -5 -93 6 -3 8 -5 51 -5 96 0 117 -3 120
-126 114 -55 -3 -108 -10 -120 -16 -12 -6 -156 -15 -359 -21 -187 -7 -376 -16
-420 -21 -44 -5 -305 -12 -580 -15 -275 -3 -625 -8 -777 -11 l-277 -6 -6 23
c-4 21 -1 141 9 279 4 56 28 156 48 195 8 17 21 56 28 87 14 63 9 60 134 83
55 10 83 20 90 32 6 10 14 56 17 103 8 102 17 138 39 163 10 10 20 35 24 55
10 60 7 157 -5 169 -9 9 -8 20 0 45 17 48 4 198 -18 206 -17 6 -61 52 -61 63
0 4 7 20 15 35 8 16 15 47 15 70 0 22 10 61 23 86 47 92 50 116 34 214 -16 94
-15 109 12 98 9 -3 39 -11 66 -17z m9308 -97 c3 -3 -3 -37 -14 -75 -10 -38
-24 -119 -30 -180 -6 -60 -15 -126 -21 -146 -16 -55 12 -618 47 -954 3 -22 7
-94 10 -160 3 -66 7 -163 9 -215 3 -52 2 -113 -1 -136 l-5 -41 -117 -12 c-64
-7 -134 -14 -156 -17 -145 -18 -125 -23 -194 47 -34 35 -70 76 -79 92 -9 15
-20 27 -24 27 -4 0 -8 5 -8 11 0 18 -89 99 -108 99 -10 0 -28 -9 -41 -21 -17
-16 -25 -18 -36 -9 -16 13 -8 42 31 126 28 60 29 72 8 102 -11 17 -25 22 -57
22 -23 1 -69 7 -102 15 -84 21 -98 19 -131 -15 -16 -16 -32 -30 -36 -30 -12 0
-38 57 -38 83 0 16 14 35 41 57 44 35 42 25 24 137 -7 38 -11 44 -44 53 -20 5
-44 10 -53 10 -9 0 -30 12 -45 26 -25 23 -101 64 -119 64 -13 0 -114 71 -114
80 0 5 -15 17 -32 26 -36 19 -88 64 -88 77 0 5 7 16 16 24 14 14 19 15 38 3
51 -33 102 -52 135 -52 79 1 143 51 170 131 14 43 14 136 0 163 -16 29 -129
78 -182 78 -72 0 -69 15 13 59 25 13 57 34 71 45 15 12 39 29 55 38 52 31 68
42 131 91 35 26 67 47 73 47 5 0 10 5 10 10 0 6 6 10 14 10 7 0 19 7 27 16 7
8 29 24 48 35 20 11 58 33 84 50 75 45 163 80 257 100 70 15 127 18 322 16
130 -1 239 -4 241 -7z m-4648 -633 c22 -34 43 -63 47 -65 5 -2 8 -8 8 -13 0
-5 19 -40 41 -77 23 -37 53 -87 67 -112 14 -25 35 -58 47 -75 11 -16 27 -42
35 -57 7 -15 21 -37 32 -47 10 -11 18 -23 18 -26 0 -7 54 -85 110 -159 25 -32
54 -71 65 -86 80 -110 196 -242 222 -251 21 -7 19 -42 -4 -54 -22 -11 -109
-82 -151 -122 -12 -13 -25 -23 -28 -23 -9 0 -87 -57 -116 -84 -15 -14 -31 -26
-35 -26 -4 0 -21 -12 -38 -28 -33 -30 -181 -132 -191 -132 -4 0 -14 -8 -23
-19 -9 -10 -34 -28 -56 -40 -22 -12 -55 -31 -73 -42 -35 -20 -176 -36 -199
-21 -9 6 -7 26 9 82 17 66 18 81 7 127 -6 28 -21 63 -33 77 l-21 27 -202 2
c-200 2 -202 2 -227 -22 -14 -13 -28 -36 -31 -52 -9 -42 -24 -50 -71 -38 -36
9 -51 7 -135 -24 -131 -49 -157 -53 -234 -31 -36 10 -65 21 -65 25 0 3 -18 12
-40 19 -22 7 -44 18 -49 24 -5 6 -13 110 -19 231 l-10 219 -32 29 c-31 27 -32
31 -26 80 11 82 17 97 40 102 25 5 119 19 226 35 81 11 100 25 100 70 0 14 4
30 9 36 6 5 6 27 1 54 -5 25 -9 89 -10 143 l0 97 73 0 c100 0 137 -12 167 -56
30 -45 63 -68 87 -60 10 4 36 22 58 41 36 31 46 35 100 36 98 1 281 33 304 53
11 10 25 39 31 64 6 26 17 58 24 72 13 23 135 157 146 159 3 0 23 -27 45 -62z
m3117 -329 c89 -83 170 -142 215 -158 27 -9 72 -34 100 -54 29 -21 70 -40 94
-44 53 -9 59 -24 19 -52 -16 -12 -30 -27 -30 -33 0 -7 -9 -20 -20 -30 -28 -24
-26 -51 13 -161 11 -31 60 -66 92 -66 11 0 36 14 54 31 27 25 40 30 65 26 121
-20 117 -19 110 -41 -3 -11 -14 -45 -25 -74 -28 -77 -25 -98 21 -143 45 -45
66 -48 105 -17 l28 22 28 -35 c16 -19 41 -53 56 -76 16 -24 40 -48 55 -54 16
-6 28 -17 28 -24 0 -7 14 -28 30 -45 l31 -33 162 7 c89 3 190 11 225 17 43 8
67 8 74 1 5 -5 17 -45 25 -89 8 -43 28 -106 44 -139 16 -34 29 -68 29 -76 0
-8 14 -51 30 -96 17 -46 30 -91 30 -102 0 -11 3 -20 8 -20 9 0 26 -54 42 -135
7 -33 16 -69 20 -80 14 -35 21 -223 9 -231 -16 -10 -83 -157 -105 -231 -16
-54 -23 -64 -57 -82 -42 -23 -68 -26 -95 -12 -52 27 -198 76 -267 91 -22 5
-71 20 -110 35 -86 32 -234 65 -291 65 -23 0 -61 7 -85 15 -40 14 -92 14 -544
0 -500 -16 -528 -16 -655 15 -25 6 -70 14 -100 18 -30 5 -69 16 -87 25 -18 9
-40 17 -50 17 -10 0 -49 12 -88 26 -38 14 -78 28 -88 31 -34 11 -34 101 0 181
24 56 33 98 43 192 4 47 14 130 21 186 13 100 12 102 -15 185 -16 46 -29 89
-30 96 -1 7 -5 16 -9 19 -18 18 -1 23 81 26 l87 3 3 40 c2 22 -1 64 -8 92 -11
51 -10 54 20 98 17 24 38 49 48 53 9 5 73 10 142 12 189 4 201 6 211 21 13 20
1 159 -22 251 -10 42 -19 91 -20 110 0 18 -4 42 -8 53 -6 15 2 35 30 77 22 31
39 64 39 72 0 9 5 16 10 16 6 0 42 48 81 108 103 156 96 151 151 100z m-1666
-180 c38 -29 72 -48 88 -48 14 0 26 3 26 8 0 4 14 13 31 21 43 19 126 9 389
-48 80 -17 156 -34 170 -37 18 -3 34 3 58 23 17 16 32 33 32 38 0 6 11 15 24
21 30 14 36 4 36 -59 1 -61 20 -80 90 -89 33 -4 88 -12 123 -17 34 -6 91 -13
127 -17 72 -7 90 -21 90 -67 0 -16 4 -46 9 -66 5 -20 15 -63 22 -96 7 -33 15
-64 19 -68 11 -12 0 -47 -14 -47 -6 0 -81 -7 -166 -16 -130 -13 -159 -19 -177
-37 -13 -11 -23 -25 -23 -30 0 -4 -14 -23 -31 -40 -29 -29 -31 -35 -26 -86 2
-31 8 -64 12 -73 6 -15 -3 -18 -81 -20 -111 -4 -116 -10 -90 -110 10 -40 29
-99 43 -130 25 -56 25 -60 15 -160 -14 -133 -37 -269 -58 -338 -9 -30 -19 -76
-23 -103 -4 -26 -12 -52 -18 -58 -13 -13 -134 42 -224 102 -33 22 -72 46 -87
52 -15 7 -58 33 -97 58 -38 25 -97 61 -130 80 -33 18 -71 44 -85 56 -14 13
-29 23 -33 23 -5 0 -41 23 -81 50 -40 28 -78 50 -84 50 -7 0 -12 4 -12 10 0 5
-13 22 -30 37 -16 14 -30 31 -30 37 0 12 -96 177 -108 186 -4 3 -18 25 -31 50
-14 25 -27 47 -30 50 -3 3 -20 25 -36 50 -17 25 -36 51 -42 58 -7 7 -13 18
-13 23 0 16 -141 220 -156 226 -18 7 -19 53 -1 53 7 0 28 13 47 30 19 16 40
29 45 30 6 0 26 14 45 30 19 16 39 30 43 30 22 0 164 129 210 191 10 13 32 53
48 89 17 36 35 73 40 82 5 10 9 23 9 30 0 21 31 47 48 40 10 -3 45 -27 78 -54z
m4764 -143 c215 -19 305 -30 660 -79 102 -14 230 -30 285 -36 55 -5 141 -14
191 -20 50 -5 122 -10 160 -10 78 -1 270 -23 279 -32 4 -4 2 -15 -3 -25 -5
-10 -17 -52 -27 -93 -10 -41 -21 -79 -25 -83 -16 -18 -199 -48 -320 -53 -170
-6 -225 -19 -242 -55 -22 -45 -122 -178 -134 -179 -7 0 -28 20 -48 44 -28 35
-48 48 -89 60 -63 18 -197 31 -231 22 -22 -5 -86 -84 -86 -106 0 -5 -13 -29
-30 -53 -16 -25 -30 -50 -30 -56 0 -6 -4 -11 -8 -11 -5 0 -19 -20 -32 -45 -18
-36 -22 -53 -16 -92 3 -25 13 -57 21 -69 8 -13 15 -32 15 -42 0 -25 73 -41
167 -34 40 2 84 1 98 -2 24 -6 25 -9 25 -86 0 -43 5 -82 10 -85 6 -3 10 -14
10 -24 0 -10 7 -24 15 -31 13 -11 14 -46 10 -254 -8 -331 -11 -363 -41 -389
-13 -11 -24 -25 -24 -31 0 -35 -23 -86 -38 -86 -22 0 -100 30 -187 73 -38 19
-81 38 -95 42 -14 4 -32 13 -40 19 -8 7 -36 20 -62 30 -26 10 -50 22 -53 27
-4 5 -14 9 -23 9 -10 0 -33 8 -52 18 -19 10 -60 27 -90 38 -30 10 -66 26 -79
36 -13 10 -32 18 -42 18 -9 0 -19 3 -21 8 -1 4 -50 27 -108 52 l-105 45 -250
-3 c-137 -1 -290 -7 -340 -12 -49 -5 -120 -12 -156 -15 l-65 -6 -2 93 c-1 102
-24 230 -47 265 -8 12 -15 33 -15 46 0 23 -13 71 -30 112 -5 11 -15 40 -24 65
-8 25 -29 83 -46 130 -17 47 -33 93 -37 103 -3 9 -9 17 -13 17 -16 0 -30 183
-33 438 l-2 273 130 -6 c171 -9 401 16 550 60 28 8 113 22 190 31 77 9 187 22
245 29 143 17 189 17 380 0z m1855 -195 c72 -5 168 -13 215 -19 126 -15 452
-51 560 -62 52 -5 142 -18 200 -30 58 -12 141 -25 185 -30 125 -14 194 -24
200 -31 3 -3 -20 -41 -53 -84 -61 -83 -102 -160 -102 -194 0 -11 -4 -20 -9
-20 -9 0 -51 -121 -51 -147 0 -7 -4 -13 -9 -13 -15 0 -19 -61 -9 -124 9 -60 4
-95 -28 -211 -17 -60 -33 -135 -41 -192 -5 -38 -9 -44 -42 -54 -150 -49 -199
-115 -133 -177 35 -33 55 -103 40 -141 -10 -26 -5 -141 8 -174 3 -9 15 -17 25
-17 18 0 26 -20 19 -45 -2 -5 -2 -60 -1 -121 2 -99 -1 -115 -23 -165 -14 -29
-26 -71 -26 -91 0 -56 -8 -68 -45 -68 -41 0 -83 -15 -110 -39 -17 -16 -29 -17
-90 -10 -108 12 -198 10 -262 -6 -76 -20 -172 -32 -370 -49 -89 -8 -167 -17
-173 -21 -7 -4 -42 -11 -79 -16 -36 -4 -85 -11 -109 -15 -33 -5 -47 -3 -62 11
-11 10 -20 23 -20 29 0 6 -9 22 -20 36 -16 20 -20 41 -20 105 0 50 -6 89 -15
105 -8 14 -14 51 -15 82 0 34 -5 60 -12 65 -7 4 -89 11 -183 14 -93 4 -224 12
-290 18 -66 7 -156 15 -200 19 l-80 7 -3 37 c-3 31 3 44 36 80 l39 43 6 265
c4 146 9 299 13 340 l6 75 -31 17 c-31 17 -31 18 -30 96 2 128 -17 142 -185
142 l-113 0 -17 43 c-9 23 -16 47 -16 52 0 10 79 144 95 161 6 6 19 30 29 52
l19 42 94 -2 c75 -2 99 -6 115 -20 12 -10 25 -18 30 -18 4 0 8 -6 8 -13 0 -20
40 -54 84 -72 42 -18 48 -15 96 37 36 38 43 48 73 98 60 100 55 97 207 103
201 8 372 38 405 72 12 11 27 50 45 115 7 25 16 58 21 74 5 16 9 40 9 54 0 23
3 24 33 17 17 -4 91 -11 162 -15z m-7282 -275 c16 -25 32 -45 36 -45 4 0 15
-17 24 -39 10 -21 32 -58 50 -82 18 -24 39 -56 46 -71 8 -15 22 -36 32 -46 9
-10 28 -41 43 -67 26 -51 25 -61 -14 -91 -12 -10 -13 -22 -2 -83 7 -39 12 -99
12 -134 1 -47 7 -75 29 -118 l28 -57 -19 -38 c-13 -27 -18 -60 -18 -115 0 -67
-4 -84 -25 -115 -13 -20 -27 -52 -31 -73 -8 -44 -24 -77 -57 -115 -14 -17 -29
-48 -32 -70 -4 -23 -13 -51 -21 -64 -19 -30 -253 -262 -287 -285 -35 -23 -43
-57 -27 -122 12 -50 11 -55 -11 -87 -13 -18 -26 -35 -30 -38 -12 -8 -49 -167
-49 -207 0 -30 27 -110 45 -133 7 -8 20 -41 29 -72 10 -31 27 -67 39 -80 49
-54 76 -97 83 -134 4 -21 21 -59 37 -83 22 -32 32 -60 35 -99 l5 -54 -59 5
c-33 2 -108 10 -169 17 -136 15 -234 8 -255 -18 -12 -15 -34 -20 -100 -24 -47
-3 -91 -7 -99 -9 -9 -3 -17 8 -22 29 -9 42 -31 58 -91 66 -69 9 -75 13 -82 52
-4 20 -16 38 -28 45 -12 6 -74 17 -137 24 -111 11 -117 11 -138 -8 -19 -17
-31 -19 -80 -13 -32 4 -105 11 -163 16 -58 5 -128 12 -157 16 l-52 6 -11 47
c-6 25 -9 99 -7 163 2 99 6 120 22 139 16 17 20 36 20 94 l0 74 56 53 c59 55
109 140 135 229 12 41 12 55 0 103 -8 30 -22 70 -30 88 -8 18 -30 71 -49 117
l-33 84 -85 56 -84 56 4 85 c2 47 7 87 12 88 5 2 9 16 9 32 0 40 25 93 72 152
41 54 80 88 98 88 9 0 29 9 43 20 14 11 33 20 44 20 21 0 73 42 73 59 0 21 76
90 107 97 26 6 84 30 142 57 35 17 82 67 75 79 -9 13 17 29 31 19 5 -5 62 -6
125 -2 105 6 119 9 151 34 20 15 39 27 43 27 5 0 28 14 53 30 24 17 48 30 53
30 6 0 15 9 22 20 7 11 18 20 23 20 6 0 26 13 45 30 19 16 38 29 42 30 4 0 27
15 51 33 24 17 56 41 71 52 34 24 236 183 286 225 19 16 37 30 40 30 3 0 18
-20 33 -45z m-3338 -124 c3 -5 7 -52 9 -103 4 -82 7 -95 27 -111 17 -14 31
-17 54 -12 16 4 81 9 143 12 l112 4 0 -58 c0 -33 5 -64 12 -71 8 -8 50 -12
122 -12 104 0 111 1 136 25 23 22 38 26 116 30 408 24 494 39 494 89 0 20 3
20 52 -4 23 -11 47 -20 53 -20 7 0 26 -7 44 -16 46 -23 147 -13 255 25 100 35
113 36 140 16 46 -35 91 -5 134 88 l23 49 153 -4 c83 -3 157 -7 163 -11 17
-11 24 -71 14 -114 -35 -137 -46 -171 -65 -192 -24 -26 -90 -60 -156 -80 -62
-18 -90 -32 -90 -45 0 -7 -8 -19 -17 -28 -27 -25 -43 -46 -43 -56 0 -11 -44
-42 -60 -42 -6 0 -42 -14 -79 -32 -51 -23 -76 -42 -97 -73 -109 -157 -104
-148 -116 -236 -6 -46 -12 -124 -12 -174 l-1 -90 50 -27 c28 -14 55 -31 62
-37 7 -6 16 -11 21 -11 14 0 49 -43 56 -70 4 -14 11 -34 16 -45 31 -69 60
-152 60 -171 0 -13 4 -25 9 -29 19 -11 -71 -215 -95 -215 -8 0 -14 -4 -14 -8
0 -5 -10 -14 -22 -21 -13 -6 -33 -28 -46 -47 -20 -31 -22 -43 -16 -95 6 -57 5
-62 -22 -90 -28 -29 -29 -33 -26 -119 l3 -89 -38 -10 c-21 -6 -103 -11 -183
-11 -137 0 -149 2 -225 30 -44 17 -90 36 -102 42 -13 7 -64 9 -134 6 -93 -4
-114 -8 -125 -23 -8 -10 -11 -28 -8 -40 6 -23 -7 -65 -28 -86 -79 -83 -97
-139 -51 -161 49 -24 40 -38 -24 -38 -85 -1 -93 -15 -96 -177 l-2 -128 42 -20
c41 -20 53 -38 53 -83 0 -13 8 -36 19 -50 16 -24 17 -31 4 -59 -7 -19 -20 -33
-31 -33 -9 0 -28 -9 -42 -20 -14 -11 -31 -20 -37 -20 -21 0 -15 -51 12 -105
22 -47 23 -51 7 -62 -53 -38 -96 -82 -107 -108 -12 -28 -11 -32 26 -79 30 -38
39 -57 37 -80 -3 -26 -8 -32 -35 -36 -36 -6 -160 -87 -166 -109 -3 -9 -8 -23
-12 -32 -4 -12 11 -34 54 -77 64 -63 74 -86 41 -95 -14 -3 -21 -17 -26 -45 -7
-45 -19 -52 -91 -52 -40 0 -43 2 -43 26 0 43 -42 74 -101 74 -27 0 -49 3 -49
8 1 20 28 161 33 169 11 18 58 264 59 309 1 63 -14 71 -152 79 -172 9 -160 2
-160 90 0 105 -6 108 -194 106 l-144 -2 -7 40 c-4 22 -15 51 -24 63 -36 47
-34 53 45 132 70 71 74 77 74 120 0 25 -4 55 -9 68 -5 13 -17 48 -25 79 -18
59 -17 64 23 152 27 59 19 81 -38 107 -63 30 -69 36 -63 65 6 33 48 55 105 55
64 0 71 13 63 113 -3 45 -9 120 -12 167 -3 47 -9 94 -13 105 -5 11 -19 67 -32
124 -34 150 -29 146 -193 146 l-136 0 -10 35 c-6 19 -10 40 -10 47 0 7 -16 29
-35 50 -40 43 -43 68 -20 153 8 30 15 67 15 82 0 17 15 41 45 72 43 45 45 49
45 106 0 43 -7 75 -27 117 -14 32 -31 69 -37 83 -5 14 -18 36 -27 50 -9 14
-19 42 -23 62 -9 49 -34 62 -103 54 l-54 -6 4 57 c7 77 16 114 36 138 62 76
54 135 -20 164 -25 9 -26 13 -22 54 5 38 2 46 -14 51 -12 4 -25 22 -32 46
l-12 40 -75 0 c-41 0 -84 -4 -94 -10 -22 -12 -26 -2 -36 70 -8 62 -30 80 -96
80 -27 0 -48 5 -48 10 0 6 63 11 168 11 92 1 199 3 237 4 39 2 201 8 360 13
313 12 409 19 440 32 57 26 139 37 150 21z m3670 -381 c48 -93 130 -202 173
-232 26 -17 49 -34 52 -37 11 -13 70 -51 78 -51 4 0 17 -9 29 -19 11 -11 38
-29 59 -40 21 -12 59 -35 84 -51 25 -17 59 -36 76 -44 17 -8 36 -21 42 -29 7
-8 31 -22 54 -33 24 -10 45 -21 48 -25 3 -3 25 -16 49 -29 25 -12 51 -29 60
-37 13 -14 169 -91 214 -106 9 -4 17 -12 17 -19 0 -7 2 -71 4 -143 2 -108 6
-137 23 -170 30 -58 47 -144 40 -206 -7 -61 -40 -228 -55 -276 -7 -20 -7 -46
-1 -72 6 -27 5 -57 -2 -88 -6 -27 -15 -81 -19 -121 -5 -52 -13 -79 -26 -92
-34 -32 -133 -59 -221 -59 -45 -1 -94 -6 -108 -11 -15 -6 -43 -10 -64 -10 -21
0 -53 -3 -70 -6 l-31 -6 0 -148 c0 -81 -5 -160 -10 -176 -6 -17 -27 -40 -50
-54 -22 -14 -40 -28 -40 -32 0 -5 -6 -8 -14 -8 -21 0 -46 -40 -46 -72 0 -15
-4 -29 -9 -32 -4 -3 -11 -19 -14 -35 -6 -27 -60 -91 -77 -91 -6 0 -47 -85 -64
-133 -6 -20 2 -20 -181 13 -55 10 -125 21 -155 25 -58 6 -84 19 -141 71 -67
61 -67 48 -18 311 22 122 15 182 -30 246 -16 23 -35 69 -42 101 -9 42 -18 60
-31 64 -10 2 -18 10 -18 17 0 7 -15 29 -34 50 -19 21 -39 56 -45 82 -7 25 -23
62 -36 82 -29 41 -31 77 -11 155 17 64 29 88 67 137 33 42 35 60 13 125 -13
39 -13 48 -2 55 20 13 109 92 127 113 9 11 48 51 88 90 53 53 77 85 92 126 12
30 21 62 21 70 0 8 15 29 33 45 31 30 45 58 67 143 6 23 15 42 20 42 6 0 10 9
10 20 0 11 5 20 10 20 6 0 10 29 10 68 0 37 8 97 19 133 20 70 15 106 -23 164
-12 18 -16 48 -16 113 0 52 -5 93 -11 99 -13 13 -5 43 10 43 6 0 18 -14 26
-30z m4752 -776 c197 -93 215 -102 293 -135 105 -44 140 -60 262 -118 59 -28
114 -51 122 -51 8 0 18 -4 21 -10 3 -5 13 -10 22 -10 9 0 24 -7 34 -16 22 -20
67 -30 269 -64 107 -18 326 -39 410 -40 145 0 220 -10 220 -29 0 -9 -14 -25
-31 -35 -65 -38 -157 -130 -166 -165 -3 -14 4 -50 16 -87 24 -66 21 -103 -7
-105 -9 -1 -109 -2 -220 -3 -201 -1 -204 -1 -223 -25 -11 -14 -19 -39 -19 -61
0 -56 -8 -69 -46 -76 -18 -3 -38 -12 -45 -20 -6 -8 -21 -14 -32 -14 -11 0 -29
-8 -39 -17 -10 -9 -34 -22 -53 -29 l-34 -11 -11 56 c-32 171 -33 173 -65 205
-19 19 -55 38 -93 50 -34 10 -67 24 -73 32 -6 8 -27 22 -45 30 -19 9 -34 20
-34 25 0 5 -5 9 -10 9 -6 0 -23 11 -38 25 -35 33 -77 44 -192 52 -110 7 -130
-3 -130 -62 l0 -33 -97 -7 c-134 -10 -174 -18 -184 -35 -5 -8 -31 -54 -58
-102 -60 -106 -67 -128 -81 -251 -5 -54 -15 -105 -21 -115 -7 -9 -52 -37 -102
-61 -80 -38 -94 -42 -112 -30 -11 7 -33 19 -50 28 -16 8 -39 23 -50 33 -22 21
-72 36 -160 49 -152 23 -203 30 -245 35 -58 6 -123 25 -132 39 -4 5 -8 28 -8
51 0 38 -15 138 -26 177 -3 9 -17 30 -30 47 -23 27 -24 32 -13 72 7 24 16 47
21 52 4 6 8 17 8 26 0 9 9 33 20 55 11 22 20 49 20 60 0 12 4 25 9 31 5 5 18
41 29 79 42 144 55 171 87 185 64 28 80 46 93 107 7 32 22 76 32 97 11 22 20
50 20 62 0 28 33 49 90 58 138 21 230 28 460 35 140 4 265 8 277 9 12 1 75
-23 140 -54z m-3511 -40 c58 -19 126 -39 152 -44 26 -5 65 -13 87 -19 109 -29
242 -43 340 -37 55 4 228 9 385 12 157 3 332 8 390 13 124 9 155 1 145 -38
-30 -119 -23 -189 29 -266 l37 -56 -36 -40 c-35 -40 -36 -42 -29 -97 12 -86
10 -104 -7 -115 -28 -17 -47 13 -53 82 -11 126 -66 124 -176 -7 -32 -38 -35
-49 -40 -119 -3 -43 -1 -86 5 -97 6 -13 30 -27 58 -35 42 -13 47 -18 47 -44 0
-16 10 -42 21 -59 18 -25 20 -34 10 -54 -6 -14 -11 -37 -11 -51 0 -15 -5 -55
-11 -90 l-11 -63 -48 0 c-27 0 -51 4 -54 9 -3 4 -25 14 -50 21 -47 13 -86 2
-86 -24 0 -7 -11 -23 -25 -36 -31 -29 -32 -66 -3 -97 l22 -23 -37 -38 c-20
-20 -38 -47 -40 -59 -2 -13 -6 -25 -9 -28 -7 -7 -188 -23 -188 -17 0 4 24 56
90 195 19 40 20 50 9 63 -12 15 -39 16 -244 10 -254 -7 -333 -16 -353 -43 -12
-17 -10 -75 4 -124 4 -13 -19 -17 -158 -28 -157 -11 -280 -20 -305 -21 -21 0
-43 -31 -43 -61 0 -29 -13 -39 -25 -19 -3 6 -17 10 -30 10 -13 0 -26 4 -29 9
-4 5 -26 4 -53 -3 -39 -10 -52 -19 -69 -50 -23 -41 -21 -74 5 -103 27 -29 32
-51 20 -99 -10 -38 -9 -47 5 -63 21 -23 22 -116 1 -137 -8 -9 -41 -18 -73 -21
l-59 -5 -6 47 c-6 44 -42 118 -76 158 -13 15 -13 23 -2 50 43 108 47 173 11
212 -102 111 -100 107 -103 191 l-2 79 45 8 c25 4 95 11 155 16 116 9 231 36
282 66 40 23 49 66 64 300 7 121 16 192 27 215 15 35 18 47 42 165 18 90 -5
236 -45 285 -7 8 -16 29 -21 45 -12 39 -6 205 8 205 5 0 57 -16 114 -36z
m1726 -124 c20 0 38 -3 40 -7 4 -10 82 -39 163 -63 33 -9 67 -19 75 -23 8 -3
67 -22 130 -42 63 -19 121 -39 129 -44 12 -8 11 -22 -9 -93 -12 -45 -31 -98
-41 -116 -11 -18 -19 -40 -19 -49 0 -23 -36 -127 -66 -189 -32 -67 -30 -86 10
-126 31 -31 34 -41 50 -147 22 -150 34 -177 89 -184 57 -8 162 -25 222 -36 28
-6 97 -17 154 -25 73 -10 110 -20 125 -34 11 -11 35 -27 51 -36 17 -8 38 -22
49 -30 18 -14 18 -16 -3 -42 -26 -33 -27 -81 -5 -169 15 -60 15 -67 0 -90 -9
-14 -23 -25 -31 -25 -16 0 -231 -104 -293 -141 -78 -48 -97 -87 -68 -139 8
-14 22 -40 31 -57 10 -18 21 -33 26 -33 5 0 9 -7 9 -16 0 -22 32 -13 106 30
100 59 164 89 172 81 4 -3 7 -46 8 -93 0 -48 6 -100 13 -117 8 -16 18 -41 24
-55 6 -14 20 -35 31 -47 16 -19 19 -36 17 -105 -1 -79 0 -87 40 -163 23 -44
45 -84 48 -90 11 -15 28 -80 41 -158 17 -93 61 -170 121 -214 l49 -35 -33 -26
c-53 -44 -53 -43 -7 -122 14 -25 41 -91 60 -148 35 -111 47 -125 111 -137 33
-6 37 -11 46 -52 20 -85 0 -109 -92 -112 -48 -2 -72 -18 -77 -51 -3 -27 -1
-27 -230 -45 l-76 -6 -10 33 c-5 18 -16 56 -22 83 -7 28 -17 54 -21 60 -5 5
-9 18 -9 30 0 33 -114 336 -138 369 -5 6 -17 34 -27 61 -25 70 -68 159 -77
163 -4 2 -8 10 -8 18 0 19 -42 104 -52 104 -4 0 -8 9 -8 20 0 11 -4 20 -10 20
-5 0 -10 7 -10 16 0 22 -60 144 -72 144 -17 0 -182 -71 -208 -90 -14 -10 -35
-35 -45 -54 -22 -40 -34 -47 -64 -39 -25 6 -25 1 -6 128 8 55 15 121 15 146 0
54 -25 140 -49 166 -9 10 -27 38 -40 63 -14 25 -50 71 -81 102 -55 56 -57 60
-79 158 -19 83 -22 118 -16 194 l6 93 -39 32 c-22 17 -44 31 -49 31 -6 0 -18
9 -27 19 -17 18 -28 19 -177 14 l-159 -6 0 30 c0 48 -29 61 -151 65 -92 3
-107 6 -127 26 -12 12 -22 26 -22 31 0 5 -7 14 -15 21 -22 18 -19 26 20 50 25
16 36 31 41 57 6 32 3 39 -20 55 -14 11 -26 26 -26 35 0 17 40 15 135 -6 62
-14 112 -5 131 24 8 12 21 71 30 131 28 189 28 187 5 211 -14 15 -21 35 -21
62 0 45 -20 65 -82 82 -33 8 -38 14 -38 40 0 35 20 76 49 103 24 21 24 21 45
-61 20 -77 82 -105 130 -58 8 8 21 15 30 15 8 0 24 13 36 30 18 26 20 35 11
67 -6 21 -11 58 -11 83 0 38 5 49 30 70 24 20 30 32 30 66 0 24 -7 48 -17 60
-19 21 -38 51 -61 97 -17 35 -8 150 14 172 12 12 21 12 62 0 26 -8 64 -15 84
-15z m2068 -560 c0 -5 7 -10 16 -10 9 0 29 -13 44 -30 15 -16 33 -30 39 -30 5
0 14 -6 18 -14 9 -15 65 -46 85 -46 7 0 24 -9 38 -20 14 -11 34 -20 45 -20 32
-1 61 -32 69 -75 30 -156 43 -285 29 -294 -18 -11 -24 -48 -11 -62 32 -34 40
-66 34 -145 -19 -274 -17 -262 -37 -267 -10 -3 -19 -12 -19 -21 0 -9 -4 -16
-10 -16 -5 0 -10 -13 -10 -29 0 -17 5 -33 10 -36 6 -3 10 -15 10 -26 0 -14 7
-19 26 -19 17 0 28 -6 31 -20 4 -14 14 -20 34 -20 16 0 29 -4 29 -10 0 -5 7
-10 15 -10 9 0 25 -9 37 -20 12 -11 32 -20 44 -20 13 0 26 -4 29 -10 3 -5 17
-10 31 -10 29 0 67 -31 46 -38 -8 -2 -12 -31 -12 -93 0 -52 -5 -100 -12 -112
-8 -14 -12 -67 -13 -142 0 -115 -1 -120 -21 -123 -26 -4 -39 -54 -29 -111 8
-51 -12 -67 -100 -75 -216 -20 -362 -43 -371 -57 -3 -5 -19 -9 -35 -9 -30 0
-59 -19 -59 -39 0 -16 -99 -109 -134 -126 -16 -8 -37 -15 -47 -15 -10 0 -21
-4 -24 -10 -3 -5 -17 -10 -30 -10 -13 0 -27 -4 -30 -10 -3 -5 -26 -10 -50 -10
-24 0 -47 -4 -50 -10 -3 -5 -28 -10 -56 -10 -27 0 -58 -5 -68 -12 -16 -10 -28
-8 -68 13 -26 13 -56 31 -66 41 -26 23 -65 103 -72 147 -8 50 -25 122 -35 146
-4 11 -14 36 -21 55 -7 19 -21 44 -31 54 -20 22 -25 46 -32 166 -3 47 -10 86
-16 88 -5 2 -10 12 -10 23 0 10 -4 19 -10 19 -5 0 -10 7 -10 15 0 8 -4 15 -10
15 -5 0 -10 7 -10 15 0 8 -4 15 -10 15 -6 0 -10 33 -10 79 0 44 -4 83 -10 86
-5 3 -10 28 -10 55 0 76 -39 110 -86 75 -10 -8 -27 -15 -36 -15 -10 0 -18 -4
-18 -8 0 -9 -76 -52 -93 -52 -5 0 -25 -11 -42 -24 -38 -29 -55 -20 -55 31 0
28 4 33 24 33 12 0 37 14 54 30 18 17 39 30 47 30 18 0 138 61 143 73 2 4 12
7 22 7 22 0 90 38 107 60 15 18 17 86 3 95 -5 3 -10 19 -10 35 0 16 -4 32 -10
35 -27 17 13 165 45 165 21 -1 175 85 175 97 0 7 7 13 16 13 40 0 63 67 64
187 0 39 5 75 10 78 6 3 10 17 10 31 0 13 5 24 10 24 6 0 10 9 10 20 0 11 5
20 10 20 6 0 10 7 10 15 0 8 5 15 10 15 6 0 10 10 10 21 0 12 10 30 22 40 25
22 19 21 83 24 28 1 84 5 126 9 82 8 75 2 112 84 9 19 18 22 69 22 32 0 58 -4
58 -10z m-7725 -471 c5 -5 17 -9 27 -9 10 0 29 -6 41 -14 64 -42 114 -49 314
-43 126 3 195 2 199 -5 4 -5 10 -35 15 -66 24 -167 51 -242 85 -242 8 0 14 -4
14 -8 0 -5 11 -22 25 -38 20 -24 35 -30 87 -35 121 -14 171 -30 186 -62 18
-39 52 -205 52 -255 0 -42 -5 -54 -38 -89 -21 -24 -43 -61 -51 -89 -8 -27 -19
-55 -24 -62 -6 -7 -9 -43 -7 -80 6 -144 3 -168 -33 -237 -43 -83 -67 -125 -91
-159 -33 -49 -114 -136 -126 -136 -17 0 -51 -61 -60 -107 -17 -96 -37 -158
-71 -225 -5 -10 -9 -26 -9 -36 0 -10 -4 -22 -10 -28 -5 -5 -12 -35 -16 -66 -6
-53 -5 -58 29 -102 32 -42 34 -50 26 -84 -18 -77 -11 -118 37 -217 25 -52 54
-97 63 -100 9 -3 39 -1 67 5 122 25 110 27 123 -23 17 -69 14 -110 -9 -124
-37 -24 -53 -74 -67 -212 -7 -73 -10 -137 -7 -142 5 -9 -35 -91 -48 -97 -5 -2
-8 -16 -8 -30 0 -28 -33 -92 -48 -92 -19 0 -41 -70 -45 -148 -4 -88 -11 -102
-55 -102 -14 0 -26 8 -32 23 -5 12 -22 40 -38 62 -26 38 -31 40 -73 37 -125
-8 -188 -5 -232 12 -44 16 -46 19 -66 86 -12 37 -21 73 -21 78 0 22 -42 40
-76 35 -27 -4 -34 -2 -34 10 0 9 5 19 10 22 18 11 11 43 -16 75 -15 17 -25 32
-23 33 2 2 17 11 32 21 24 15 28 23 24 49 -2 18 -10 46 -18 64 -11 28 -11 37
4 69 10 20 20 56 24 80 5 38 2 50 -23 85 -27 39 -30 41 -70 36 -36 -4 -43 -1
-52 18 -6 13 -20 26 -32 30 -26 8 -20 18 25 39 28 14 35 23 35 46 0 38 -9 60
-25 60 -7 0 -15 4 -17 8 -4 12 -95 72 -107 72 -6 0 -11 8 -11 18 0 11 -9 27
-20 37 -15 14 -20 31 -20 71 0 97 -31 126 -110 106 -22 -5 -42 -7 -45 -2 -5 8
16 72 27 80 6 5 -2 52 -21 120 -3 14 -16 29 -28 35 -17 7 -23 21 -28 60 -4 27
-13 75 -21 105 -20 76 -18 82 22 123 34 34 36 38 25 65 -7 15 -34 51 -62 79
l-50 51 51 36 c27 20 58 36 68 36 62 1 89 40 78 115 -6 47 -31 105 -50 117
-13 9 31 58 53 58 20 1 44 19 58 44 8 15 5 35 -12 85 -13 36 -21 69 -18 73 2
5 20 15 38 22 24 10 41 28 58 63 40 79 41 98 10 127 -22 20 -27 33 -25 65 3
45 -15 81 -38 81 -9 0 -24 6 -34 13 -16 11 -18 27 -17 97 1 46 3 86 5 88 2 2
23 -2 45 -8 23 -6 50 -8 61 -5 40 13 54 126 20 163 -21 23 -27 52 -10 52 17 0
70 92 70 121 0 24 5 28 33 31 46 5 120 -3 132 -13z m4735 -176 c0 -5 -4 -13
-9 -18 -11 -14 -81 -192 -81 -209 0 -8 8 -22 17 -32 17 -17 17 -17 308 1 47 3
53 -6 54 -77 1 -36 -3 -50 -18 -57 -22 -12 -39 -52 -43 -100 -3 -30 -8 -36
-35 -43 -23 -6 -35 -16 -39 -34 -7 -27 -38 -44 -83 -44 -36 0 -57 -44 -54
-116 1 -41 -3 -56 -22 -79 -14 -15 -36 -29 -49 -30 -45 -5 -61 -15 -86 -52
-66 -99 -73 -127 -39 -172 l20 -27 -19 -70 c-11 -38 -25 -81 -31 -97 -9 -23
-7 -34 14 -72 24 -42 25 -46 10 -81 -29 -69 -21 -97 53 -196 44 -59 57 -66 95
-47 13 6 7 -3 -15 -25 -21 -19 -38 -43 -38 -53 0 -20 44 -109 68 -135 8 -10
22 -18 31 -18 21 0 61 36 93 83 20 29 27 35 36 24 8 -9 6 -33 -9 -87 -20 -77
-19 -83 23 -104 12 -6 24 -19 26 -28 3 -13 -9 -18 -55 -24 -83 -10 -97 -17
-113 -59 l-15 -38 -163 5 -163 5 -92 47 c-101 51 -162 65 -190 44 -10 -7 -28
-53 -43 -108 -14 -52 -29 -108 -34 -125 -5 -16 -14 -56 -20 -87 l-11 -58 -50
0 c-33 0 -55 6 -67 18 -10 9 -31 24 -47 32 -16 8 -37 20 -45 27 -70 55 -112
83 -125 83 -8 0 -15 4 -15 10 0 9 -43 39 -210 146 -25 16 -54 34 -65 40 -11 6
-36 20 -55 32 -67 41 -150 82 -165 82 -8 0 -15 4 -15 9 0 5 -37 23 -82 41 -46
17 -93 36 -106 41 -13 5 -33 9 -46 9 -13 0 -37 7 -54 16 -17 8 -63 19 -101 23
-39 4 -74 10 -77 14 -7 7 8 89 27 151 5 16 9 41 9 57 0 15 4 29 10 31 5 2 16
32 24 68 8 36 24 101 36 145 12 44 25 98 30 120 4 22 13 56 19 75 6 19 16 60
21 90 5 30 14 73 19 95 6 22 19 83 31 135 11 52 34 123 50 156 17 34 30 67 30
73 0 6 4 11 9 11 11 0 67 54 79 77 6 10 15 46 22 80 11 53 16 63 41 73 16 7
29 16 29 21 0 5 6 9 14 9 8 0 29 16 47 35 31 32 34 33 51 18 23 -21 23 -47 -4
-139 l-22 -75 28 -52 c16 -29 35 -59 42 -67 7 -8 15 -40 19 -70 14 -124 19
-127 147 -99 51 11 110 25 131 31 l37 11 -1 175 c-2 168 -3 175 -26 203 -28
33 -24 69 8 69 10 0 19 -4 19 -8 0 -13 57 -42 84 -42 29 0 52 29 62 77 l6 30
131 7 c73 4 186 9 252 12 98 4 123 9 139 23 17 18 17 21 1 76 -19 69 -15 90
19 81 14 -3 35 -2 48 3 30 11 328 15 328 4z m-3901 -58 c42 -8 130 -19 196
-24 113 -10 122 -9 148 10 24 18 36 20 80 13 29 -4 56 -7 61 -6 16 5 34 -18
34 -44 0 -13 2 -27 4 -30 11 -10 114 -44 135 -44 19 0 23 -6 23 -29 0 -58 17
-64 182 -57 139 5 151 7 178 29 27 23 34 24 127 20 54 -2 117 -9 141 -15 24
-6 67 -11 97 -11 30 0 55 -4 55 -8 0 -5 -4 -28 -10 -51 -41 -183 -39 -193 48
-285 44 -48 67 -64 102 -73 25 -7 52 -15 60 -20 9 -4 74 -17 145 -29 214 -36
200 -32 199 -66 -2 -39 -37 -198 -45 -205 -3 -3 -9 -18 -12 -35 -5 -28 -26
-115 -47 -196 -6 -20 -10 -47 -10 -61 0 -13 -4 -28 -9 -33 -5 -6 -19 -53 -31
-105 -19 -87 -40 -162 -76 -278 -8 -23 -14 -49 -14 -56 0 -15 -186 -23 -765
-31 -198 -3 -456 -10 -573 -16 -156 -8 -229 -8 -275 0 -34 6 -98 18 -142 26
-44 7 -102 20 -128 27 l-48 13 6 40 c18 123 27 151 64 178 20 15 52 48 71 73
19 25 43 53 53 62 17 15 105 189 137 270 13 34 16 83 9 183 -2 45 1 61 19 86
12 17 22 38 22 46 0 9 13 28 28 44 53 54 62 74 62 143 0 37 -7 91 -15 121 -41
143 -61 200 -75 218 -18 24 -149 61 -215 61 -25 0 -45 3 -45 8 0 4 -20 27 -45
52 -56 57 -62 100 -13 100 17 0 65 -7 107 -15z m4427 -292 c-3 -16 -2 -34 3
-41 17 -27 231 -41 330 -22 56 10 73 6 116 -32 19 -17 23 -28 19 -52 -16 -90
-15 -131 6 -219 29 -121 35 -134 106 -211 104 -111 173 -241 154 -290 -11 -29
-30 -181 -30 -240 0 -52 6 -61 66 -93 65 -36 95 -31 138 21 20 24 36 51 36 58
0 13 22 29 60 41 8 3 31 12 51 21 35 14 37 14 47 -7 6 -12 33 -71 62 -132 28
-60 64 -137 81 -170 16 -34 29 -66 29 -72 0 -7 14 -43 31 -80 17 -37 39 -86
49 -108 44 -97 124 -365 150 -503 5 -26 14 -71 20 -101 6 -29 8 -57 3 -62 -4
-4 -51 -12 -104 -18 -53 -6 -118 -17 -145 -25 -27 -8 -83 -25 -124 -36 -41
-12 -92 -30 -115 -39 -94 -42 -98 -43 -107 -29 -5 7 -7 23 -5 35 2 12 -4 45
-13 73 -14 42 -26 62 -70 119 -18 23 -221 81 -284 81 -30 0 -39 -6 -65 -46
-17 -25 -38 -59 -47 -76 -9 -17 -25 -40 -35 -51 -10 -12 -19 -25 -19 -30 0 -4
-7 -15 -15 -23 -15 -15 -15 -15 -81 19 -17 9 -93 32 -170 52 -76 19 -148 40
-159 45 -32 16 -138 49 -157 50 -33 0 -40 35 -24 117 21 100 21 169 0 177 -8
3 -40 3 -70 0 l-54 -7 -6 32 c-4 17 -10 31 -15 31 -4 0 -10 8 -13 18 -4 10
-22 26 -41 35 -19 9 -35 21 -35 26 0 12 64 31 106 31 48 0 67 29 62 94 -3 33
-11 61 -22 72 -13 12 -16 26 -12 48 3 17 9 54 12 82 6 48 5 53 -19 68 -34 23
-122 23 -147 1 -10 -9 -21 -28 -25 -42 -5 -20 -8 -23 -20 -13 -22 18 -18 33
15 65 35 34 39 72 12 124 -25 50 -46 60 -82 39 l-30 -17 -25 39 c-29 46 -30
51 -9 109 17 51 11 95 -18 115 -19 14 -19 14 1 57 12 23 21 52 21 63 0 12 7
39 15 61 19 54 19 60 -10 91 -14 15 -25 31 -25 35 0 18 78 89 97 89 19 0 46
18 86 57 23 23 36 72 26 101 -5 13 -4 32 3 47 9 20 19 25 57 27 42 3 47 6 64
41 11 25 24 37 37 37 12 0 31 7 45 16 21 14 23 21 18 67 -5 48 -3 54 26 81 24
23 31 38 31 68 l0 38 81 0 81 0 -6 -27z m3094 -1063 c4 -8 26 -73 49 -145 23
-71 54 -154 68 -184 25 -49 26 -56 13 -95 -7 -22 -13 -58 -13 -80 -1 -38 14
-59 62 -85 13 -8 13 -12 2 -25 -16 -19 -10 -141 8 -175 18 -33 78 -63 140 -68
57 -5 59 -5 91 30 32 36 33 36 67 22 20 -8 44 -15 53 -15 11 0 24 -13 32 -31
9 -20 22 -32 41 -36 15 -3 33 -14 40 -23 7 -10 29 -25 50 -33 31 -13 37 -21
37 -46 0 -16 12 -78 26 -138 19 -79 24 -121 19 -158 -3 -27 -9 -93 -14 -145
-4 -56 -14 -108 -24 -127 -39 -73 -3 -153 61 -139 24 6 32 3 47 -20 16 -24 16
-35 6 -89 -6 -34 -11 -76 -11 -93 0 -41 -18 -80 -52 -114 -22 -22 -28 -37 -28
-71 0 -25 -3 -59 -6 -77 -8 -37 -4 -38 -149 16 -77 28 -116 37 -170 38 l-70 1
-5 117 c-3 64 -8 120 -12 123 -4 4 -37 11 -73 14 -71 8 -117 -5 -129 -34 -3
-9 -6 -77 -6 -151 l0 -134 -48 0 c-74 0 -92 -18 -92 -94 l0 -63 -41 -7 c-48
-8 -51 -6 -64 42 l-11 37 -84 6 c-47 4 -131 10 -187 14 l-101 8 -39 -31 c-21
-17 -44 -41 -50 -54 -21 -42 -41 -92 -54 -133 -6 -22 -15 -49 -19 -60 -5 -11
-11 -28 -14 -38 -5 -16 -8 -17 -21 -3 -8 8 -15 20 -15 26 0 6 -5 16 -10 23
-50 58 -100 141 -100 166 0 39 -17 83 -38 99 -14 11 -15 16 -3 45 7 17 21 53
31 78 9 26 31 67 49 92 28 42 31 52 31 126 0 97 -11 131 -42 131 -13 0 -32 7
-42 15 -18 14 -18 20 -8 97 7 46 12 107 12 136 0 33 7 67 20 92 15 30 20 59
20 119 l0 81 -64 66 c-52 53 -69 78 -85 127 -32 101 -32 101 -39 283 -2 37 -5
42 -39 57 -21 9 -51 20 -68 25 -25 7 -31 15 -36 48 -3 21 -16 66 -28 99 -13
33 -25 70 -28 83 -3 12 -9 22 -14 22 -5 0 -3 11 3 25 6 14 16 25 23 25 6 0 22
10 34 22 13 11 40 25 60 29 20 4 59 13 86 19 28 5 61 14 75 19 14 5 52 15 85
22 33 7 83 25 110 40 49 27 125 94 125 109 0 16 78 58 115 62 36 5 115 16 335
46 84 12 111 10 120 -8z m-7600 -425 c142 -45 399 -57 750 -35 85 5 333 12
550 14 217 3 420 8 451 12 70 8 72 3 48 -96 -17 -69 -23 -104 -49 -270 -5 -30
-13 -80 -19 -110 -16 -84 -57 -412 -67 -540 -6 -76 -22 -99 -56 -83 -15 7 -31
33 -48 74 -13 35 -27 66 -30 69 -3 3 -11 17 -19 31 -14 28 -48 39 -126 39 -90
0 -105 -21 -106 -140 -2 -160 2 -206 22 -259 11 -29 17 -56 14 -60 -4 -3 -169
-9 -368 -13 -383 -8 -530 -19 -577 -43 -16 -8 -50 -22 -77 -31 -26 -8 -63 -22
-81 -30 -78 -36 -148 -54 -210 -54 l-64 0 7 73 c6 61 11 76 35 98 34 32 44 50
59 113 7 27 21 60 32 74 15 20 19 41 19 108 0 83 16 219 29 240 3 6 23 36 44
67 36 51 38 59 32 104 -10 72 -34 150 -50 163 -14 12 -65 10 -165 -5 -35 -5
-35 -4 -64 56 -31 67 -32 78 -21 161 9 70 3 96 -34 138 -25 29 -28 40 -24 79
2 25 8 55 14 67 10 19 15 20 57 12 26 -4 67 -15 92 -23z m2080 -47 c79 -20
116 -32 165 -53 17 -7 59 -25 95 -39 36 -15 90 -42 120 -60 30 -18 82 -48 115
-66 59 -32 125 -73 196 -121 97 -65 225 -153 229 -158 3 -3 12 -10 21 -16 9
-5 28 -18 42 -28 52 -37 218 -62 255 -38 7 4 18 26 23 47 20 78 30 120 36 159
3 22 12 52 19 67 8 15 14 38 14 51 0 13 6 30 13 39 11 14 20 11 91 -28 71 -40
90 -46 175 -54 53 -6 155 -11 227 -13 153 -3 174 -12 194 -84 17 -57 29 -66
79 -54 23 5 43 6 45 2 2 -3 -6 -47 -18 -96 -30 -124 -24 -147 49 -174 30 -11
63 -25 72 -30 10 -5 29 -12 43 -15 49 -11 56 -21 41 -58 -7 -18 -22 -58 -33
-88 -11 -30 -26 -69 -34 -87 -24 -54 -13 -96 32 -113 13 -5 24 -13 24 -18 0
-10 -148 -162 -158 -162 -10 0 -54 68 -82 129 -30 63 -61 82 -90 56 -11 -10
-20 -24 -20 -32 0 -7 -4 -13 -8 -13 -5 0 -21 -27 -36 -61 -25 -56 -26 -64 -16
-121 6 -33 9 -66 6 -74 -3 -7 -23 -22 -46 -34 -22 -11 -40 -28 -40 -37 0 -25
-23 -83 -33 -83 -4 0 -17 5 -28 11 -18 9 -20 17 -14 73 9 84 -2 93 -82 70 -32
-9 -67 -23 -78 -30 -11 -8 -35 -14 -55 -14 -44 0 -60 -10 -79 -51 -19 -38 -40
-46 -156 -55 -71 -7 -82 -10 -107 -38 -15 -17 -28 -38 -28 -48 0 -10 -6 -18
-12 -18 -13 0 -42 -44 -59 -87 -13 -34 23 -73 68 -73 33 0 35 -1 28 -27 -9
-36 -7 -35 -68 -45 -28 -4 -61 -10 -72 -13 -11 -2 -39 -7 -62 -11 -42 -7 -43
-6 -43 23 0 22 -6 33 -25 41 -28 13 -29 17 -14 77 6 25 8 56 5 70 -8 33 -73
105 -95 105 -17 0 -58 -36 -101 -89 -22 -27 -31 -30 -76 -31 -28 0 -68 -7 -88
-15 -29 -12 -57 -14 -126 -9 -101 8 -93 -1 -90 100 1 42 -4 59 -31 98 -17 26
-37 49 -43 51 -6 2 -83 6 -171 10 -158 5 -254 15 -287 29 -22 10 -25 26 -38
196 -12 161 -21 180 -83 180 l-30 0 6 136 c4 75 13 182 21 238 8 55 20 146 26
201 6 55 20 132 31 170 10 39 19 82 19 96 0 14 4 39 9 55 5 16 14 67 21 114 7
47 18 88 24 92 14 10 81 1 176 -24z m4513 -544 c9 -56 30 -105 52 -124 8 -7
15 -18 15 -24 0 -6 18 -29 40 -50 22 -21 43 -50 46 -63 8 -31 -3 -103 -19
-121 -7 -8 -15 -58 -19 -111 -4 -53 -12 -131 -19 -174 -11 -73 -10 -81 8 -105
11 -15 33 -29 49 -32 26 -5 30 -11 38 -55 8 -45 6 -55 -22 -110 -57 -112 -92
-194 -92 -214 0 -11 11 -44 24 -73 13 -29 29 -75 35 -101 9 -40 42 -99 71
-127 5 -5 26 -41 45 -77 6 -12 28 -38 47 -59 32 -32 40 -36 70 -30 33 6 34 7
83 154 37 109 58 155 80 178 30 31 31 31 95 22 36 -5 96 -12 135 -16 l69 -7 9
-42 8 -43 47 0 c69 1 183 17 194 28 5 5 12 37 16 72 l7 63 52 16 c29 9 58 22
64 28 7 7 11 56 11 129 0 66 4 129 9 142 8 20 11 21 29 10 18 -12 20 -23 20
-125 0 -145 -1 -144 126 -136 76 5 101 3 129 -10 66 -31 100 -46 165 -69 67
-23 99 -49 100 -81 0 -30 -39 -97 -58 -97 -23 -1 -46 -20 -69 -56 -10 -17 -26
-42 -36 -56 -12 -17 -18 -47 -20 -93 -2 -82 13 -100 79 -90 l42 6 10 -48 c6
-26 14 -73 17 -104 5 -47 3 -58 -15 -74 -11 -10 -20 -22 -20 -27 0 -5 -6 -16
-14 -24 -8 -8 -18 -36 -21 -62 -4 -26 -11 -60 -16 -76 -5 -16 -9 -47 -10 -70
-1 -60 -12 -90 -34 -95 -56 -10 -59 -58 -10 -120 28 -35 33 -47 24 -63 -6 -11
-8 -37 -4 -59 4 -21 6 -42 5 -46 -1 -5 -25 -15 -54 -24 -45 -14 -52 -20 -64
-55 -7 -21 -27 -50 -44 -64 -30 -26 -31 -27 -32 -127 -1 -100 0 -102 29 -133
38 -40 38 -87 -1 -173 -35 -78 -42 -152 -19 -196 l17 -33 -54 -51 c-29 -28
-62 -56 -73 -62 -33 -18 -31 -74 5 -137 17 -29 36 -62 43 -73 6 -11 19 -32 29
-47 23 -35 23 -48 -1 -48 -23 0 -35 -15 -50 -62 -12 -37 -33 -49 -46 -28 -3 6
-23 18 -43 28 -50 25 -94 51 -191 111 -70 44 -89 52 -124 49 -36 -3 -44 -8
-69 -48 -15 -25 -32 -56 -38 -70 -6 -14 -27 -59 -47 -100 -20 -41 -45 -95 -57
-120 -12 -25 -24 -47 -27 -50 -3 -3 -11 -21 -18 -40 -8 -19 -22 -53 -32 -76
-11 -22 -19 -46 -19 -52 0 -15 -33 -15 -74 -2 -148 48 -189 60 -209 60 -24 0
-51 -16 -94 -56 -35 -32 -41 -31 -49 14 -3 20 -13 57 -21 82 -16 45 -27 92
-42 165 -5 22 -22 92 -39 155 -16 63 -36 147 -43 185 -6 39 -23 115 -36 170
-14 55 -29 121 -33 146 -5 26 -14 64 -20 85 -7 22 -16 57 -20 79 -5 22 -23
103 -40 180 -16 77 -33 154 -36 170 -3 17 -9 39 -14 50 -5 11 -11 38 -14 60
-3 22 -19 101 -36 175 -17 74 -35 169 -41 210 -5 41 -16 103 -24 138 -8 35
-15 75 -15 88 0 14 -9 64 -19 112 -21 96 -41 389 -41 602 0 127 -16 277 -55
510 -22 132 -55 283 -65 302 -6 10 -10 30 -10 45 0 15 -9 61 -19 102 -11 42
-24 101 -29 131 -27 141 -43 242 -40 245 2 2 66 8 143 14 77 6 155 15 174 21
36 10 62 37 54 56 -3 8 9 15 34 19 21 4 43 8 48 10 22 7 30 -4 38 -51z m-1420
-158 c48 -13 99 -32 113 -41 35 -23 64 -74 64 -115 0 -90 41 -154 90 -143 14
3 29 10 35 14 5 5 17 9 27 9 10 0 18 5 18 10 0 6 8 10 18 10 19 0 129 33 167
50 56 24 334 68 354 55 5 -2 11 -24 15 -47 3 -24 11 -65 16 -93 6 -27 13 -66
16 -85 3 -19 9 -44 14 -55 4 -11 13 -54 20 -95 12 -79 15 -93 31 -150 6 -19
14 -64 19 -100 5 -36 14 -92 20 -125 6 -33 15 -157 20 -275 13 -269 27 -477
40 -555 5 -33 12 -89 15 -125 7 -77 32 -228 41 -241 3 -5 10 -35 14 -67 5 -31
14 -83 20 -114 5 -32 15 -84 20 -115 39 -216 79 -405 101 -488 6 -22 14 -60
19 -85 17 -88 56 -247 83 -335 9 -27 23 -95 31 -149 9 -55 20 -102 24 -105 9
-6 28 -95 38 -171 2 -19 13 -64 23 -100 11 -36 27 -99 36 -140 10 -41 21 -85
26 -98 5 -13 9 -34 9 -48 0 -24 -3 -25 -32 -19 -18 4 -39 11 -48 15 -22 11
-57 25 -132 55 -37 14 -88 36 -114 49 -40 20 -50 22 -71 11 -34 -18 -46 -38
-77 -132 -30 -91 -29 -90 -137 -93 l-55 -1 -12 51 c-17 75 -15 99 18 198 30
89 31 118 10 182 -5 14 -11 37 -14 53 -4 17 -13 27 -24 27 -9 0 -41 9 -70 20
-61 23 -107 25 -142 5 -41 -23 -47 -18 -65 50 -28 102 -71 138 -121 100 -10
-8 -28 -15 -38 -15 -11 0 -27 -7 -37 -16 -15 -14 -25 -14 -66 -4 -26 6 -64 14
-83 16 -43 6 -79 23 -106 50 -21 20 -21 21 -3 45 10 13 19 32 19 42 0 33 20
55 91 103 38 26 75 56 80 66 15 27 2 56 -33 74 -17 9 -40 25 -51 35 -12 10
-25 19 -29 19 -9 0 -69 40 -78 52 -3 3 -38 22 -78 42 -58 30 -75 44 -87 71
-13 32 -12 42 10 115 31 103 49 141 85 175 17 16 30 35 30 42 0 7 4 13 8 13 4
0 23 25 41 55 36 59 43 114 20 171 -6 16 -11 75 -10 134 l1 105 -27 12 c-16 7
-53 15 -83 18 -113 13 -112 11 -135 132 -9 43 -20 96 -25 118 -4 22 -14 74
-21 115 -7 41 -18 86 -25 100 -15 30 -111 130 -124 130 -6 0 -10 6 -10 13 0 6
-14 27 -31 45 l-30 32 25 103 c30 121 60 338 53 387 -9 64 -35 159 -77 290
-46 142 -46 144 -5 270 45 140 61 175 97 218 15 18 28 38 28 45 0 7 8 22 18
33 9 10 31 40 47 66 17 27 32 48 35 48 3 0 45 -11 93 -24z m-469 -157 c56 -17
109 -33 119 -36 21 -6 21 -7 -17 -108 -14 -38 -26 -78 -26 -88 0 -11 -9 -30
-20 -44 -13 -17 -20 -41 -20 -71 0 -46 17 -120 32 -136 4 -6 8 -20 8 -32 0
-13 5 -26 10 -29 6 -3 10 -17 10 -31 0 -14 9 -53 20 -87 10 -34 23 -80 27
-102 9 -43 -8 -228 -28 -305 -11 -44 -25 -120 -36 -192 -3 -20 -1 -43 4 -51
10 -20 76 -98 128 -152 22 -24 48 -51 57 -62 9 -10 21 -45 27 -78 6 -33 17
-91 26 -130 8 -38 15 -83 15 -98 0 -37 30 -157 40 -157 4 0 10 -9 13 -19 4
-16 21 -21 96 -32 50 -7 91 -15 92 -18 0 -3 1 -45 2 -93 1 -54 7 -92 15 -100
6 -6 12 -27 12 -45 0 -40 -28 -83 -137 -212 -13 -14 -23 -36 -23 -49 0 -12 -4
-30 -9 -40 -24 -45 -51 -123 -51 -148 0 -14 10 -55 22 -91 18 -53 20 -66 9
-73 -8 -4 -21 -6 -28 -3 -25 10 -64 -20 -80 -60 -15 -38 -87 -95 -156 -125
-37 -16 -37 -16 -37 10 0 13 -18 41 -41 64 -37 38 -44 41 -80 37 -34 -5 -39
-3 -39 14 0 42 -77 103 -130 103 -9 0 -29 -9 -43 -20 -14 -11 -39 -23 -56 -26
-31 -6 -31 -6 -25 27 3 19 9 43 14 54 43 105 51 137 49 187 -6 99 -34 148
-102 175 -33 13 -37 19 -31 37 13 39 17 126 5 126 -6 0 -22 24 -35 54 -13 29
-29 57 -36 61 -7 4 -46 11 -86 15 -71 7 -73 8 -123 61 -33 35 -51 63 -51 79 0
28 -7 40 -31 55 -9 6 -35 23 -58 38 -96 64 -120 71 -238 77 -111 5 -112 6
-141 38 -16 17 -36 32 -46 32 -9 0 -29 6 -44 14 -15 8 -44 17 -64 21 -42 8
-49 19 -39 66 6 30 11 34 41 36 137 10 170 22 170 63 0 10 -6 25 -13 32 -7 7
-41 48 -76 90 -52 64 -61 81 -55 100 4 13 8 28 9 33 0 6 24 10 53 11 29 0 58
6 65 13 7 7 11 33 11 59 -1 26 4 51 10 55 8 6 7 10 -1 14 -7 2 -13 13 -13 23
0 20 -34 52 -101 94 -24 16 -53 40 -63 54 -19 25 -19 26 4 68 24 46 20 59 -25
79 -23 10 -22 10 -58 1 l-29 -7 18 31 c10 16 22 30 25 30 4 0 10 8 14 19 6 19
50 28 185 36 55 4 90 27 90 60 0 18 31 42 65 48 17 3 43 9 59 13 28 7 28 7 22
-32 -3 -22 -3 -44 1 -50 11 -16 66 -43 89 -44 10 0 38 -3 61 -6 48 -7 73 9 73
47 0 35 23 89 37 89 7 0 27 13 44 28 25 22 33 38 34 68 1 21 -1 44 -5 49 -4 6
-10 26 -14 46 -5 28 -2 42 13 60 l19 24 10 -26 c6 -14 31 -46 56 -72 38 -40
51 -47 84 -47 35 0 46 8 131 94 104 104 129 147 110 183 -7 13 -20 25 -30 28
-37 12 -41 30 -19 86 11 30 20 64 20 77 0 12 4 22 9 22 5 0 16 15 25 34 16 33
17 34 58 24 23 -5 87 -23 142 -39z m-3276 -69 c7 0 22 -21 34 -47 61 -135 71
-154 89 -164 11 -5 54 -10 97 -10 126 0 117 11 129 -152 6 -88 14 -142 22
-145 6 -2 11 -19 11 -37 0 -19 5 -37 11 -41 35 -21 204 -43 334 -44 182 0 185
-2 185 -109 0 -48 -6 -95 -16 -122 -16 -42 -24 -88 -40 -221 l-7 -57 -99 -7
c-119 -8 -123 -12 -133 -127 -7 -72 -6 -80 15 -102 26 -28 25 -38 -27 -195
-33 -103 -49 -163 -60 -226 -4 -28 0 -35 33 -58 21 -14 43 -26 49 -26 5 0 20
-8 32 -18 l22 -17 -59 -63 c-33 -35 -60 -68 -60 -73 0 -26 -178 -229 -201
-229 -3 0 -36 -43 -74 -95 -37 -52 -79 -102 -91 -110 -13 -9 -24 -24 -24 -35
0 -11 -9 -35 -19 -54 -11 -19 -26 -54 -34 -77 -23 -66 -47 -129 -67 -174 -10
-22 -33 -74 -50 -115 -17 -41 -37 -86 -45 -100 -7 -14 -21 -41 -31 -60 -9 -19
-21 -42 -26 -50 -4 -8 -16 -31 -27 -51 -23 -42 -51 -145 -51 -187 l0 -30 -102
-5 c-97 -4 -229 -27 -273 -47 -11 -5 -38 -11 -60 -13 -22 -3 -65 -12 -95 -20
-30 -9 -95 -18 -144 -20 -83 -3 -90 -2 -113 21 -23 23 -23 27 -17 127 7 100 6
105 -20 148 -22 39 -26 57 -26 127 0 71 3 85 25 114 31 41 34 97 5 126 -24 24
-26 64 -5 113 13 32 13 41 1 69 -41 96 -54 138 -43 138 7 0 34 20 61 45 26 25
51 45 53 45 3 0 17 -7 33 -16 27 -16 29 -16 84 21 31 20 66 51 79 67 12 17 37
46 55 66 18 19 36 49 38 66 3 17 14 52 25 78 27 65 24 129 -7 199 -15 33 -31
59 -37 59 -6 0 -7 15 -3 38 3 20 11 71 17 112 14 107 15 108 52 108 51 0 105
27 113 56 3 14 3 29 0 35 -4 6 14 30 39 54 44 43 45 46 45 107 0 53 4 69 26
97 23 30 26 42 23 96 -4 81 20 132 69 148 25 8 39 22 53 53 10 22 19 51 19 62
0 12 9 33 21 48 12 15 23 46 26 69 3 23 13 50 21 60 10 11 16 39 16 80 1 52 6
70 33 112 67 104 76 158 46 270 -8 33 -19 89 -22 125 -4 36 -11 73 -15 82 -7
15 -3 36 20 107 3 8 12 11 27 7 12 -3 28 -6 35 -6z m1498 -794 c4 -16 -4 -43
-21 -79 -29 -58 -28 -84 2 -93 37 -11 46 -21 48 -54 4 -41 30 -63 65 -55 59
15 203 35 266 37 67 2 71 0 127 -42 46 -35 57 -48 57 -71 0 -25 -4 -29 -29
-29 -16 0 -36 -3 -45 -6 -42 -16 -78 -142 -55 -187 7 -12 31 -43 55 -69 50
-53 54 -67 22 -69 -49 -3 -65 -7 -100 -23 -34 -17 -37 -21 -48 -86 -9 -51 -9
-78 0 -107 38 -126 39 -135 28 -184 -10 -42 -9 -51 8 -75 44 -63 51 -79 41
-91 -15 -20 -24 -16 -58 22 -41 45 -90 48 -132 9 -15 -14 -55 -48 -88 -75 -89
-75 -122 -124 -116 -175 2 -23 9 -48 16 -55 6 -8 20 -26 31 -40 35 -48 66 -44
136 17 65 58 78 63 88 38 8 -22 7 -74 -1 -74 -5 0 -20 -10 -35 -23 -23 -18
-29 -34 -38 -101 -10 -77 -1 -144 22 -170 24 -28 7 -36 -77 -36 -83 0 -85 0
-100 -29 -10 -21 -14 -48 -10 -90 5 -71 5 -71 -102 -44 l-67 16 -27 -32 c-30
-37 -13 -34 -271 -46 -89 -4 -138 -3 -138 4 0 10 51 149 76 206 28 65 28 83
-1 109 -15 14 -41 28 -58 32 -18 4 -51 16 -74 27 -40 19 -43 19 -68 3 -14 -9
-32 -31 -40 -49 -35 -81 -114 -309 -122 -350 -8 -41 -38 -48 -174 -41 -134 8
-126 11 -169 -71 -30 -57 -41 -69 -76 -84 -24 -9 -40 -29 -65 -79 -19 -37 -37
-68 -41 -70 -5 -2 -8 -10 -8 -19 0 -19 -24 -43 -44 -43 -9 0 -16 -4 -16 -8 0
-4 -14 -13 -31 -19 -19 -8 -34 -23 -42 -42 -10 -27 -16 -31 -48 -31 -56 0 -62
14 -49 112 7 46 19 94 29 108 9 14 45 84 80 155 35 72 70 142 78 157 22 44 83
218 83 238 0 16 12 45 51 122 5 10 9 24 9 32 0 8 6 16 14 18 15 3 116 122 116
137 0 5 19 27 42 48 83 76 144 139 173 178 17 22 33 42 36 45 3 3 13 19 22 35
8 17 47 61 86 99 42 41 71 77 71 89 0 26 -38 67 -62 67 -19 0 -51 15 -81 39
-20 16 -17 49 13 141 88 273 89 278 55 318 -27 33 -34 92 -12 109 6 6 54 13
106 16 52 3 99 11 105 17 6 6 13 61 17 123 3 62 12 130 20 152 l14 40 126 -4
c106 -3 128 -1 142 13 12 13 32 16 81 14 57 -2 69 1 92 22 14 14 33 37 42 53
20 33 40 35 48 3z"/>
</g>
</svg>
